<svg xmlns="http://www.w3.org/2000/svg" version="1.1" xmlns:xlink="http://www.w3.org/1999/xlink"
    xmlns:svgjs="http://svgjs.com/svgjs" width="512" height="512" x="0" y="0" viewBox="0 0 512 512"
    style="enable-background:new 0 0 512 512" xml:space="preserve" class="">
    <g>
        <path fill="#f76937"
            d="M11 256C11 120.69 120.69 11 256 11s245 109.69 245 245c0 112.443-75.749 207.194-179.001 236.007-.905.253-44.118-7.507-65.999-7.507s-65.096 7.76-66.002 7.507C86.747 463.192 11 368.442 11 256z"
            data-original="#f76937"></path>
        <path fill="#76b6fa"
            d="M322 220v272.007c-20.998 5.86-43.133 8.993-66 8.993s-45.002-3.133-66-8.993V220c0-11.046 8.954-20 20-20h92c11.046 0 20 8.954 20 20z"
            data-original="#76b6fa"></path>
        <path fill="#3493f8"
            d="M432 436H80c-11.046 0-20-8.954-20-20v-46c0-11.046 8.954-20 20-20h352c11.046 0 20 8.954 20 20v46c0 11.046-8.954 20-20 20z"
            data-original="#3493f8"></path>
        <path fill="#76b6fa"
            d="M482 410H30c-16.569 0-30-13.431-30-30V90c0-16.569 13.431-30 30-30h452c16.569 0 30 13.431 30 30v290c0 16.569-13.431 30-30 30z"
            data-original="#76b6fa"></path>
        <path fill="#86befb"
            d="M482 410H60c-16.569 0-30-13.431-30-30V90c0-16.569 13.431-30 30-30h422c16.569 0 30 13.431 30 30v290c0 16.569-13.431 30-30 30z"
            data-original="#86befb"></path>
        <path fill="#453d83"
            d="M467 378.182H45c-8.284 0-15-6.716-15-15V106.818c0-8.284 6.716-15 15-15h422c8.284 0 15 6.716 15 15v256.364c0 8.284-6.716 15-15 15z"
            data-original="#453d83"></path>
        <path fill="#e9f3fe"
            d="M69.397 350c-3.178 0-5.463-3.088-4.506-6.118 10.948-34.678 43.371-59.82 81.668-59.82s70.72 25.142 81.668 59.82c.957 3.03-1.328 6.118-4.506 6.118z"
            data-original="#e9f3fe"></path>
        <path fill="#453d83"
            d="M173.097 324.439c-7.592 10.835-17.039 17.636-22.422 16.533-2.875-4.683.291-15.885 7.883-26.72s17.039-17.636 22.422-16.533c2.875 4.683-.291 15.885-7.883 26.72z"
            data-original="#453d83"></path>
        <path fill="#a7d0fc" d="M164.383 350h-35.647c0-9.844 7.98-17.823 17.823-17.823s17.824 7.979 17.824 17.823z"
            data-original="#a7d0fc"></path>
        <path fill="#958fca"
            d="M370.163 163.354c-12.206 12.206-31.995 12.206-44.2 0-12.206-12.206-12.206-31.995 0-44.2 12.206-12.206 31.995-12.206 44.2 0 12.206 12.206 12.206 31.995 0 44.2zM421.937 110c-17.261 0-31.254 13.993-31.254 31.254s13.993 31.254 31.254 31.254 31.254-13.993 31.254-31.254S439.198 110 421.937 110z"
            data-original="#958fca"></path>
        <path fill="#6a61b4"
            d="M370.163 119.154a31.3 31.3 0 0 1 4.938 6.408l-42.729 42.73a31.264 31.264 0 0 1-6.408-4.938 31.334 31.334 0 0 1-4.938-6.408l42.73-42.73a31.356 31.356 0 0 1 6.407 4.938zM421.937 110c-2.773 0-5.462.362-8.022 1.04v60.429c2.56.678 5.249 1.04 8.022 1.04 2.774 0 5.462-.362 8.022-1.04V111.04a31.297 31.297 0 0 0-8.022-1.04z"
            data-original="#6a61b4"></path>
        <path fill="#8078bf"
            d="M260 290v50c0 5.523-4.477 10-10 10s-10-4.477-10-10v-50c0-5.523 4.477-10 10-10s10 4.477 10 10zm20-10c-5.523 0-10 4.477-10 10v50c0 5.523 4.477 10 10 10s10-4.477 10-10v-50c0-5.523-4.477-10-10-10z"
            data-original="#8078bf"></path>
        <path fill="#fff5f5"
            d="M260 290v10c0 5.523-4.477 10-10 10s-10-4.477-10-10v-10c0-5.523 4.477-10 10-10s10 4.477 10 10zm20 30c-5.523 0-10 4.477-10 10v10c0 5.523 4.477 10 10 10s10-4.477 10-10v-10c0-5.523-4.477-10-10-10z"
            data-original="#fff5f5"></path>
        <path fill="#76b6fa" d="M90 276.667c0 5.523-4.477 10-10 10s-10-4.477-10-10 4.477-10 10-10 10 4.477 10 10z"
            data-original="#76b6fa"></path>
        <path fill="#8078bf"
            d="M367.5 296.667v-10c0-5.523 4.477-10 10-10h15c5.523 0 10 4.477 10 10v10c0 5.523-4.477 10-10 10h-15c-5.523 0-10-4.477-10-10zm-22.5-20h-15c-5.523 0-10 4.477-10 10v10c0 5.523 4.477 10 10 10h15c5.523 0 10-4.477 10-10v-10c0-5.523-4.477-10-10-10zm95 0h-15c-5.523 0-10 4.477-10 10v10c0 5.523 4.477 10 10 10h15c5.523 0 10-4.477 10-10v-10c0-5.523-4.477-10-10-10zm-62.5-13.334h15c5.523 0 10-4.477 10-10v-10c0-5.523-4.477-10-10-10h-15c-5.523 0-10 4.477-10 10v10c0 5.523 4.477 10 10 10zm-32.5-30h-15c-5.523 0-10 4.477-10 10v10c0 5.523 4.477 10 10 10h15c5.523 0 10-4.477 10-10v-10c0-5.523-4.477-10-10-10zm95 0h-15c-5.523 0-10 4.477-10 10v10c0 5.523 4.477 10 10 10h15c5.523 0 10-4.477 10-10v-10c0-5.523-4.477-10-10-10zM377.5 220h15c5.523 0 10-4.477 10-10v-10c0-5.523-4.477-10-10-10h-15c-5.523 0-10 4.477-10 10v10c0 5.523 4.477 10 10 10zM345 190h-15c-5.523 0-10 4.477-10 10v10c0 5.523 4.477 10 10 10h15c5.523 0 10-4.477 10-10v-10c0-5.523-4.477-10-10-10zm95 0h-15c-5.523 0-10 4.477-10 10v10c0 5.523 4.477 10 10 10h15c5.523 0 10-4.477 10-10v-10c0-5.523-4.477-10-10-10zm-95 130h-15c-5.523 0-10 4.477-10 10v10c0 5.523 4.477 10 10 10h15c5.523 0 10-4.477 10-10v-10c0-5.523-4.477-10-10-10zm95 0h-60c-5.523 0-10 4.477-10 10v10c0 5.523 4.477 10 10 10h60c5.523 0 10-4.477 10-10v-10c0-5.523-4.477-10-10-10z"
            data-original="#8078bf"></path>
        <path fill="#a7d0fc"
            d="M280 250H70c-5.523 0-10-4.477-10-10V130c0-5.523 4.477-10 10-10h210c5.523 0 10 4.477 10 10v110c0 5.523-4.477 10-10 10z"
            data-original="#a7d0fc"></path>
        <path fill="#e9f3fe"
            d="M90 140c0 5.523-4.477 10-10 10s-10-4.477-10-10 4.477-10 10-10 10 4.477 10 10zm-10 20c-5.523 0-10 4.477-10 10s4.477 10 10 10 10-4.477 10-10-4.477-10-10-10zm190 60c-5.523 0-10 4.477-10 10s4.477 10 10 10 10-4.477 10-10-4.477-10-10-10z"
            data-original="#e9f3fe"></path>
        <path fill="#76b6fa"
            d="m110 210 20-20v60h-20zm30 40h20v-70h-20zm30 0h20v-70h-20zm30 0h20v-70h-20zm30-90v90h20V150z"
            data-original="#76b6fa"></path>
        <path fill="#e9f3fe"
            d="m255.624 149.699-14.896 16.882a63.403 63.403 0 0 1-47.521 21.445h-28.518a48.39 48.39 0 0 0-36.273 16.369l-22.791 25.83a7.482 7.482 0 0 1-5.627 2.538 7.5 7.5 0 0 1-5.621-12.462l22.791-25.83a63.401 63.401 0 0 1 47.521-21.445h28.518a48.39 48.39 0 0 0 36.273-16.369l14.896-16.883a7.499 7.499 0 0 1 10.586-.661 7.5 7.5 0 0 1 .662 10.586z"
            data-original="#e9f3fe"></path>
    </g>
</svg>