<?xml version="1.0" encoding="utf-8"?>
<!-- Generator: Adobe Illustrator 22.1.0, SVG Export Plug-In . SVG Version: 6.00 Build 0)  -->
<svg version="1.1" id="Layer_1" xmlns="http://www.w3.org/2000/svg" xmlns:xlink="http://www.w3.org/1999/xlink" x="0px"
	y="0px" viewBox="0 0 310 271" style="enable-background:new 0 0 310 271;" xml:space="preserve">
	<style type="text/css">
		.st0 {
			fill: #FBE7EB;
		}

		.st1 {
			fill: #FFFFFF;
		}

		.st2 {
			fill: #66BB6A;
		}

		.st3 {
			fill: none;
			stroke: #FFFFFF;
			stroke-linecap: round;
			stroke-linejoin: round;
			stroke-miterlimit: 10;
		}

		.st4 {
			fill: #C8E6C9;
		}

		.st5 {
			fill: none;
			stroke: #66BB6A;
			stroke-linecap: round;
			stroke-linejoin: round;
			stroke-miterlimit: 10;
		}

		.st6 {
			fill: none;
			stroke: #C8E6C9;
			stroke-linecap: round;
			stroke-linejoin: round;
			stroke-miterlimit: 10;
		}

		.st7 {
			fill: none;
			stroke: #66BB6A;
			stroke-width: 2;
			stroke-miterlimit: 10;
		}
	</style>
	<path class="st0" d="M290.7,266.8c0,0,16-14.5,0.8-32.7c-12.6-15.1-9.9-20.9-6.7-48.6c2.5-21.8-21.3-52.3-49.4-46.9
	c-21.8,4.2-41-25.4-67.8-26c-43.5-0.8-63.6,7.5-71.2,32.7c-9.1,30.4-36,9.2-55.3,35.2c-13.9,18.7,5.9,33.5-1.7,51.1
	s-12.7,32.9-12.7,32.9l240.5,4.7" />
	<circle class="st1" cx="267.7" cy="249.1" r="16.9" />
	<g>
		<path class="st2" d="M267.5,227.4c0,0-5.6-10.5-10.5-13.8c-5-3.4-2-8.4-2.5-11.8c-0.5-3.4,1.6-7,0.7-14.1s1.2-11.5,5.4-7.1
		c4.1,4.4,10.9,9,9,14.9c-1.9,5.8,2.6,5,4.1,10s-3.2,8-3.2,12.8C270.4,223.1,267.5,227.4,267.5,227.4z" />
		<path class="st3" d="M267.5,227.4c0,0,1.2-10.4-2.4-17.7c-3.6-7.4-3.4-8.8-3.1-14c0.4-5.2-0.9-7.5-0.9-7.5" />
	</g>
	<g>
		<path class="st2" d="M271.1,226.7c0,0,2.8-8.6,6.9-8.6c4.5,0.1,7.5-3.9,10.4-1.1c2.9,2.8,9.1,5.8,11.2,2.8c2.1-3-1.8-9-6.4-12.5
		c-4.7-3.5-6.7-4.6-10.9-2.4c-4.2,2.3-11.7,10-12.5,14.4S271.1,226.7,271.1,226.7z" />
		<path class="st3" d="M271.1,226.7c0,0-0.1-8,4-11.4c4-3.4,4.4-7.5,8.9-7.1c4.5,0.4,11.1,5.4,11.1,5.4" />
	</g>
	<g>
		<path class="st2" d="M266.4,226.6c0,0-6.3-6.1-6.4-9.1c-0.1-3-3.1-8.1-6.8-9.5s-8.4-7-10.6-3s3.9,2.9,3.3,10.7
		S266.4,226.6,266.4,226.6z" />
		<path class="st3" d="M266.4,226.6c0,0-9.7-5.2-11.9-9.9c-2.3-4.6-6.5-7.2-6.5-7.2" />
	</g>
	<rect x="262.2" y="225.4" class="st1" width="11" height="11.2" />
	<path class="st2" d="M170.4,64.5c0,0,16.7-1.7,19.5,24.6c2.8,26.2,3.9,37.4,16.7,45.2c12.8,7.8,0.6,19.5,14.5,25.7
	c14,6.1,1.7,22.9-12.8,19s-84.8,7.8-97.7-6.7s7.8-17.9,8.9-34.6c1.1-16.7-4.8-13.6,5.4-28.3S129.1,60,170.4,64.5" />
	<path class="st4" d="M237.1,267.9l-133,1.8c0,0-7.5-84.4,19.3-115.4c28.2-32.6,58.7-18.4,82.6-1.4
	C235.8,174.1,237.1,267.9,237.1,267.9z" />
	<path class="st2" d="M115.8,264.6h46.9c1.8,0,3.3-1.5,3.3-3.3l0,0c0-1.8-1.5-3.3-3.3-3.3h-46.9c-1.8,0-3.3,1.5-3.3,3.3l0,0
	C112.5,263.1,114,264.6,115.8,264.6z" />
	<path class="st1" d="M123,99.7c0,19.1,5.9,34.1,20.4,34.1c14.5,0,32.1-15,32.1-34.1S158,64.6,143.5,64.6C129,64.6,123,80.6,123,99.7
	z" />
	<path class="st1" d="M164.4,119.2c2,10.5,7,17.2,15.5,19.1l-22.2,26.7c0,0-16.3-21.8-17.2-24.8c-0.2-0.6,7.7-4.5,7.7-4.5l-3.1-9.9
	L164.4,119.2z" />
	<path class="st5" d="M227.6,194.2c0,0,10.3,36.6,4.5,49.1c-5.9,12.6-70.1,8.8-70.1,8.8l-3.3-10.9c0,0,42.6-8.7,45.9-8.7
	c2,0-2.2-14.1-3.4-29c-0.8-10.4-3.3-21.6-3.3-21.6" />
	<path class="st1" d="M158.5,241.2c0,0-11.2,0.8-15.6,3.6c-4.5,2.8-7,5.9-5.3,6.4c1.7,0.6,5.3,2.2,7.5,0.6c2.2-1.7,12.8,2,16.7,0.3
	C165.8,250.4,158.5,241.2,158.5,241.2" />
	<path class="st2" d="M26.8,264.6h90.4c1.9,0,3.4-1.7,3-3.6l-10.6-58.3c-0.3-1.5-1.5-2.5-3-2.5H16.2c-1.9,0-3.4,1.7-3,3.6l10.6,58.3
	C24.1,263.5,25.3,264.6,26.8,264.6z" />
	<path class="st4" d="M21.8,264.6h90.4c1.9,0,3.4-1.7,3-3.6l-10.6-58.3c-0.3-1.5-1.5-2.5-3-2.5H11.2c-1.9,0-3.4,1.7-3,3.6l10.6,58.3
	C19,263.5,20.3,264.6,21.8,264.6z" />
	<rect x="7" y="264.7" transform="matrix(-1 -1.224647e-16 1.224647e-16 -1 306.208 535.2136)" class="st2"
		width="292.2" height="5.9" />
	<path class="st2" d="M154.5,58.7c14.8,2.7,31.2,17.6,24.1,31.8c-7.1,14.2-11.2,8.5-11.2,8.5S156,88,154.4,76.3c0,0,0.1,6.6-16.9,7.7
	c-18.7,1.2-12.8,21.2-12.8,21.2s-15.5,0.8-13.8-12.9S112.1,51,154.5,58.7z" />
	<path class="st6" d="M139.2,98.8c0,0-5.4,8.8-4.4,9.7c1,0.9,5,1.5,5,1.5" />
	<circle class="st0" cx="155.1" cy="109.4" r="5.7" />
	<ellipse class="st0" cx="127.1" cy="109.3" rx="2" ry="4.5" />
	<path class="st4" d="M133.8,115.3c0,0,8.6-1.5,11.9-1.1s0,9.2-5.6,9.8C134.5,124.5,133.8,115.3,133.8,115.3z" />
	<path class="st2" d="M175.1,109.8l-1-0.3c0,0.1-3,11-12,13.4c-0.5-1.2-1.6-2-2.9-2c-1.7,0-3.2,1.4-3.2,3.2s1.4,3.2,3.2,3.2
	s3.2-1.4,3.2-3.2c0-0.1,0-0.1,0-0.2C171.9,121.4,175.1,110,175.1,109.8z" />
	<path class="st4" d="M151.4,58.5c0,0,12.8-0.6,15.8,14c3,14.5,1.5,20.1,1.5,20.1l9.9-1c0,0-0.2-14.2-2.5-21.3
	c-3.3-10.4-11.5-11.3-11.5-11.3L151.4,58.5z" />
	<path class="st5" d="M137.9,251.6c0,0,1.6-3.2,4.6-4.7c3.1-1.5,3.6-1.5,3.6-1.5" />
	<path class="st5" d="M140.4,252.3c0,0,1.6-3.4,4.9-4.2c2.2-0.6,2.9-0.7,2.9-0.7" />
	<g>
		<path class="st2" d="M142.4,90.5l0.5,0.9c0.1,0,5.4-2.7,10.7-0.2l0.4-0.9C148.3,87.6,142.6,90.4,142.4,90.5z" />
		<path class="st2" d="M126.3,90.3l0.6,0.8c0.1-0.1,3.2-2.4,8.4,0.1l0.4-0.9C130,87.6,126.5,90.2,126.3,90.3z" />
	</g>
	<path class="st4" d="M174.9,112.3L174.9,112.3c6,0,11-4.9,11-11v-4c0-6-4.9-11-11-11h0c-6,0-11,4.9-11,11v4
	C163.9,107.4,168.8,112.3,174.9,112.3z" />
	<path class="st2" d="M176.5,106.9L176.5,106.9c3.6,0,6.6-3,6.6-6.6v-2.4c0-3.6-3-6.6-6.6-6.6h0c-3.6,0-6.6,3-6.6,6.6v2.4
	C170,104,172.9,106.9,176.5,106.9z" />
	<path class="st5" d="M126.6,182.7c0,0-6.4,18-2.2,26.3c6.3,12.4,2.5,47-4.9,50.3" />
	<g>
		<g>
			<g>
				<path class="st2"
					d="M149.2,97.3c-0.1,0-0.3,0-0.4,0.1c-0.7-0.2-1.5-0.7-1.9-1c-0.1-0.1-0.3-0.1-0.4,0c-0.1,0.1-0.1,0.3,0.1,0.4
				c0,0,0.8,0.6,1.6,0.9c-0.5,0.4-0.8,1.2-0.8,2.1c0,1.4,0.8,2.5,1.8,2.5c1,0,1.8-1.1,1.8-2.5C151,98.4,150.2,97.3,149.2,97.3z" />
			</g>
			<g>
				<path class="st2"
					d="M131.1,97.3c-0.2,0-0.3,0-0.5,0.1c-0.6-0.3-1.3-0.8-1.9-1.4c-0.1-0.1-0.3-0.1-0.4,0c-0.1,0.1-0.1,0.3,0,0.4
				c0.3,0.3,1,0.9,1.8,1.3c-0.5,0.4-0.8,1.2-0.8,2.1c0,1.4,0.8,2.5,1.8,2.5c1,0,1.8-1.1,1.8-2.5C132.9,98.4,132.1,97.3,131.1,97.3z" />
			</g>
		</g>
	</g>
	<path class="st5" d="M164.3,201.2c0,0-21.2,19.5-12.3,16.2c8.9-3.3,18.4-7.3,14-2.2s-7.3,6.1-7.3,6.1" />
	<ellipse transform="matrix(0.9922 -0.1248 0.1248 0.9922 -28.6645 9.1807)" class="st1" cx="58.9" cy="233.3" rx="6.5"
		ry="7.3" />
	<g>
		<path class="st4" d="M184.3,32.2l-7.6-7.6c-1.2-1.2-1.2-3.2,0-4.4l8-8c1.2-1.2,3.2-1.2,4.4,0l7.6,7.6c1.2,1.2,1.2,3.2,0,4.4l-8,8
		C187.5,33.4,185.5,33.4,184.3,32.2z" />
		<path class="st4" d="M67.3,76.1l-5-5c-0.8-0.8-0.8-2.1,0-2.9l5.3-5.3c0.8-0.8,2.1-0.8,2.9,0l5,5c0.8,0.8,0.8,2.1,0,2.9l-5.3,5.3
		C69.4,76.9,68.1,76.9,67.3,76.1z" />
		<path class="st4" d="M234.3,127.7l-5-5c-0.8-0.8-0.8-2.1,0-2.9l5.3-5.3c0.8-0.8,2.1-0.8,2.9,0l5,5c0.8,0.8,0.8,2.1,0,2.9l-5.3,5.3
		C236.4,128.5,235.1,128.5,234.3,127.7z" />
		<path class="st4" d="M207.4,101l-3.4-3.4c-0.6-0.6-0.6-1.4,0-2l3.6-3.6c0.6-0.6,1.4-0.6,2,0l3.4,3.4c0.6,0.6,0.6,1.4,0,2l-3.6,3.6
		C208.8,101.6,207.9,101.6,207.4,101z" />
		<path class="st4" d="M85.7,44l-3.4-3.4c-0.6-0.6-0.6-1.4,0-2l3.6-3.6c0.6-0.6,1.4-0.6,2,0l3.4,3.4c0.6,0.6,0.6,1.4,0,2L87.7,44
		C87.1,44.5,86.2,44.5,85.7,44z" />
		<path class="st4" d="M98.6,114.9l-3.4-3.4c-0.6-0.6-0.6-1.4,0-2l3.6-3.6c0.6-0.6,1.4-0.6,2,0l3.4,3.4c0.6,0.6,0.6,1.4,0,2l-3.6,3.6
		C100.1,115.4,99.2,115.4,98.6,114.9z" />
		<path class="st4" d="M274.6,117.7l-8.5-8.5c-1.4-1.4-1.4-3.6,0-4.9l8.9-8.9c1.4-1.4,3.6-1.4,4.9,0l8.5,8.5c1.4,1.4,1.4,3.6,0,4.9
		l-8.9,8.9C278.2,119.1,276,119.1,274.6,117.7z" />
	</g>
	<circle class="st7" cx="57.9" cy="125.2" r="26.8" />
	<circle class="st7" cx="236.5" cy="57.4" r="29.7" />
	<circle class="st7" cx="127" cy="24.6" r="20.2" />
	<path class="st2" d="M55,121.8l6.3,5.7l-1.5,1.7c-1.2,1.3-1,3.3,0.3,4.5l3.2,2.8c1.3,1.2,3.3,1,4.5-0.3l0.8-0.9
	c2.5-2.9,2.3-7.3-0.6-9.8L56.2,115c-2.9-2.5-7.3-2.3-9.8,0.6l-0.8,0.9c-1.2,1.3-1,3.3,0.3,4.5l3.2,2.8c1.3,1.2,3.3,1,4.5-0.3
	L55,121.8z" />
	<g>
		<g>
			<polygon class="st2" points="251.8,65.7 251.8,49.3 243.7,57.6 		" />
			<path class="st2" d="M240.5,60.8c-0.9,0.9-2.1,1.4-3.3,1.4c-0.3,0-0.6,0-0.9-0.1c-0.9-0.2-1.8-0.6-2.4-1.3L232,59l-8.9,7.9l27.9,0
			c0.1,0,0.2,0,0.3-0.1l-8.5-8.5L240.5,60.8z" />
			<polygon class="st2" points="222.3,49.3 222.3,66.2 231.3,58.2 		" />
			<path class="st2" d="M239.9,60l10.8-11l-27.2,0l11,11.1C236,61.6,238.4,61.5,239.9,60z" />
		</g>
	</g>
	<g>
		<g>
			<path class="st2" d="M128.6,27.3l-0.1,2.2c-0.1,0.9-0.8,1.6-1.7,1.5c-0.9,0-1.6-0.8-1.5-1.7l0.2-3.4c0,0,0,0,0-0.1c0,0,0,0,0-0.1
			c0-0.9,0.9-1.6,1.7-1.5c2.1,0.1,3.9-1.4,4-3.5c0.1-2.1-1.5-3.8-3.6-3.9c-1.4-0.1-2.6,0.6-3.3,1.6c-0.5,0.8-1.5,1-2.3,0.5
			c-0.7-0.5-0.9-1.5-0.4-2.3c1.3-2,3.6-3.2,6.2-3.1c3.8,0.2,6.8,3.5,6.6,7.4C134.2,24.2,131.7,26.8,128.6,27.3z M128.2,34.6l0,0.6
			c-0.1,0.9-0.8,1.6-1.7,1.5c-0.9,0-1.6-0.8-1.5-1.7l0-0.6c0.1-0.9,0.9-1.6,1.7-1.5C127.6,32.9,128.2,33.7,128.2,34.6z" />
		</g>
	</g>
	<polyline class="st5" points="135.3,142.1 157.6,173.3 185.5,139.3 " />
</svg>