<svg width="1325" height="975" viewBox="0 0 1325 975" fill="none" xmlns="http://www.w3.org/2000/svg">
    <mask id="mask0_2_113" style="mask-type:luminance" maskUnits="userSpaceOnUse" x="0" y="0" width="1325" height="975">
        <path d="M1324.35 0H0V974.926H1324.35V0Z" fill="white" />
    </mask>
    <g mask="url(#mask0_2_113)">
        <path fill-rule="evenodd" clip-rule="evenodd"
            d="M1324.35 324.06V780.721C1324.35 843.773 1270.64 887.951 1199.23 883.609L1143.29 880.209L1077.41 876.234L1025.1 873.052L972.425 869.869L418.638 836.293L366.027 833.111L159.317 820.577C132.753 818.828 106.933 811.075 83.8 797.9C77.1473 794.166 70.7378 790.015 64.61 785.471C25.952 756.9 0 714.311 0 670.221V103.254C0 28.4401 74.615 -17.0699 159.317 6.04006L546.08 111.617L585.449 122.365L1108.88 265.241L1158.49 278.785L1324.35 324.06Z"
            fill="#EEF4FB" />
        <path fill-rule="evenodd" clip-rule="evenodd"
            d="M546.5 111.732C498.963 262.963 357.416 372.944 190.652 372.944C123.52 373.028 57.6257 354.883 0 320.445V367.125C58.853 397.834 124.269 413.829 190.652 413.742C376.193 413.742 533.612 290.984 585.899 122.467L546.5 111.732Z"
            fill="white" />
        <path fill-rule="evenodd" clip-rule="evenodd"
            d="M998.198 584.322C998.198 457.59 1061.69 345.437 1158.53 277.943L1108.83 264.396C1016.39 340.402 957.335 455.591 957.335 584.322C957.335 697.743 1003.17 800.653 1077.3 875.501L1143.3 879.478C1055.08 811.19 998.198 704.283 998.198 584.322Z"
            fill="white" />
        <path fill-rule="evenodd" clip-rule="evenodd"
            d="M680.298 686.988C554.55 686.988 441.743 743.635 365.91 832.836L418.51 836.022C485.823 769.192 578.352 727.897 680.303 727.897C798.41 727.897 903.833 783.337 972.115 869.652L1024.77 872.839C950.693 760.907 823.94 686.988 680.298 686.988Z"
            fill="white" />
        <path fill-rule="evenodd" clip-rule="evenodd"
            d="M0 417.734V440.812C79.249 467.691 136.452 542.743 136.452 630.891C136.456 660.19 130.031 689.133 117.63 715.677C105.229 742.222 87.1531 765.722 64.679 784.518C70.8155 789.055 77.2327 793.199 83.892 796.925C107.344 776.089 126.113 750.519 138.962 721.9C151.811 693.281 158.448 662.263 158.435 630.892C158.435 530.505 91.584 445.406 0 417.734Z"
            fill="white" />
        <path fill-rule="evenodd" clip-rule="evenodd"
            d="M672.678 579.062C597.138 579.062 535.688 517.545 535.688 441.951C535.688 366.357 597.138 304.843 672.678 304.843C748.236 304.843 809.687 366.359 809.687 441.951C809.687 517.543 748.236 579.062 672.678 579.062ZM672.678 289.842C588.878 289.842 520.678 358.071 520.678 441.951C520.678 525.831 588.878 594.063 672.678 594.063C756.497 594.063 824.678 525.831 824.678 441.951C824.678 358.071 756.497 289.842 672.678 289.842Z"
            fill="white" />
        <path
            d="M388.421 531.493C379.871 525.28 372.911 517.135 368.106 507.722C363.302 498.308 360.79 487.893 360.776 477.325C360.776 445.43 351.318 414.252 333.599 387.733C315.879 361.214 290.694 340.545 261.227 328.34C231.761 316.134 199.337 312.941 168.056 319.163C136.774 325.385 108.041 340.744 85.4879 363.296C62.9353 385.849 47.5767 414.583 41.3545 445.864C35.1322 477.146 38.3257 509.57 50.5311 539.036C62.7365 568.503 83.4056 593.688 109.925 611.407C136.444 629.127 167.622 638.585 199.516 638.585C210.105 638.584 220.543 641.089 229.979 645.894C239.415 650.698 247.58 657.666 253.809 666.229C261.994 677.539 272.537 686.937 284.709 693.774C296.882 700.611 310.393 704.724 324.31 705.829C338.227 706.934 352.218 705.004 365.317 700.174C378.415 695.343 390.309 687.726 400.176 677.85C410.044 667.974 417.649 656.073 422.468 642.97C427.286 629.867 429.203 615.874 428.085 601.958C426.967 588.042 422.841 574.534 415.993 562.368C409.145 550.202 399.737 539.668 388.42 531.494L388.421 531.493Z"
            fill="#00205A" />
        <path
            d="M1199.95 478.944C1181.64 492.231 1166.74 509.661 1156.46 529.811C1146.18 549.96 1140.81 572.256 1140.8 594.876C1140.8 785.399 986.14 940.059 795.617 940.059C605.094 940.059 450.434 785.399 450.434 594.876C450.434 404.353 605.094 249.693 795.617 249.693C818.24 249.694 840.541 244.334 860.693 234.052C880.844 223.771 898.273 208.861 911.55 190.544C949.156 138.744 1010.05 104.871 1078.91 104.871C1192.98 104.871 1285.5 197.393 1285.5 311.458C1285.53 344.158 1277.8 376.397 1262.92 405.518C1248.05 434.639 1226.46 459.806 1199.95 478.944Z"
            fill="#66BB6A" />
        <path
            d="M443.917 414.719C337.573 414.719 250.904 501.139 250.904 607.732C250.904 714.201 337.573 800.745 443.917 800.745C550.261 800.745 636.93 714.325 636.93 607.732C636.931 501.264 550.262 414.719 443.917 414.719ZM443.917 704.239C424.829 704.239 406.171 698.579 390.3 687.974C374.43 677.37 362.06 662.298 354.756 644.663C347.452 627.029 345.54 607.625 349.264 588.904C352.988 570.184 362.179 552.988 375.676 539.491C389.173 525.994 406.369 516.803 425.089 513.079C443.81 509.355 463.214 511.267 480.848 518.571C498.483 525.875 513.555 538.245 524.159 554.115C534.764 569.986 540.424 588.644 540.424 607.732C540.423 633.327 530.255 657.873 512.157 675.972C494.058 694.07 469.512 704.238 443.917 704.239Z"
            fill="#66BB6A" />
        <path
            d="M897.603 297.635C897.668 293.372 896.863 289.142 895.235 285.202C893.608 281.262 891.193 277.696 888.139 274.722C882.06 268.804 873.958 265.42 865.476 265.258H348.448C339.966 265.42 331.864 268.804 325.785 274.722C322.731 277.696 320.316 281.262 318.689 285.202C317.062 289.142 316.256 293.372 316.321 297.635V673.575C316.256 677.837 317.062 682.068 318.689 686.008C320.316 689.948 322.731 693.514 325.785 696.488C331.864 702.406 339.966 705.789 348.448 705.952H865.475C873.957 705.789 882.059 702.406 888.138 696.488C891.192 693.514 893.607 689.948 895.234 686.008C896.861 682.068 897.667 677.837 897.602 673.575C897.603 592.012 897.603 379.075 897.603 297.635Z"
            fill="white" />
        <path
            d="M619.041 586.906C619.04 585.618 618.527 584.384 617.617 583.473C616.706 582.563 615.472 582.05 614.184 582.049H512.447C511.166 582.072 509.944 582.591 509.038 583.497C508.133 584.403 507.614 585.625 507.591 586.906C507.593 588.193 508.105 589.427 509.015 590.338C509.926 591.248 511.16 591.76 512.447 591.762H614.184C614.825 591.772 615.461 591.653 616.054 591.412C616.648 591.172 617.187 590.814 617.64 590.362C618.093 589.909 618.451 589.369 618.691 588.776C618.932 588.182 619.051 587.546 619.041 586.906Z"
            fill="#E1E6F2" />
        <path
            d="M793.624 307.474C796.787 307.474 799.352 304.909 799.352 301.746C799.352 298.582 796.787 296.018 793.624 296.018C790.461 296.018 787.896 298.582 787.896 301.746C787.896 304.909 790.461 307.474 793.624 307.474Z"
            fill="#1E3084" />
        <path
            d="M819.899 307.474C823.062 307.474 825.627 304.909 825.627 301.746C825.627 298.582 823.062 296.018 819.899 296.018C816.735 296.018 814.171 298.582 814.171 301.746C814.171 304.909 816.735 307.474 819.899 307.474Z"
            fill="#FFB000" />
        <path
            d="M846.173 307.474C849.337 307.474 851.901 304.909 851.901 301.746C851.901 298.582 849.337 296.018 846.173 296.018C843.01 296.018 840.445 298.582 840.445 301.746C840.445 304.909 843.01 307.474 846.173 307.474Z"
            fill="#FFB000" />
        <path
            d="M583.8 616.169C583.799 614.882 583.287 613.647 582.377 612.737C581.466 611.826 580.232 611.314 578.944 611.312H512.323C511.042 611.335 509.82 611.854 508.914 612.76C508.009 613.666 507.49 614.889 507.467 616.169C507.469 617.457 507.981 618.692 508.891 619.602C509.801 620.513 511.036 621.025 512.323 621.026H578.944C579.585 621.036 580.221 620.917 580.814 620.676C581.408 620.436 581.947 620.078 582.4 619.625C582.853 619.172 583.21 618.633 583.45 618.039C583.691 617.446 583.81 616.81 583.8 616.169Z"
            fill="#E1E6F2" />
        <path
            d="M583.8 645.308C583.799 644.021 583.287 642.786 582.377 641.876C581.466 640.965 580.232 640.453 578.944 640.451H512.323C511.042 640.474 509.82 640.993 508.914 641.899C508.009 642.805 507.49 644.027 507.467 645.308C507.469 646.596 507.981 647.83 508.891 648.74C509.802 649.65 511.036 650.163 512.323 650.164H578.944C579.585 650.174 580.22 650.055 580.814 649.814C581.407 649.573 581.946 649.216 582.399 648.763C582.852 648.31 583.209 647.771 583.45 647.178C583.691 646.584 583.81 645.949 583.8 645.308Z"
            fill="#E1E6F2" />
        <path
            d="M236.999 241.351C239.75 241.351 241.98 239.121 241.98 236.37C241.98 233.619 239.75 231.389 236.999 231.389C234.248 231.389 232.018 233.619 232.018 236.37C232.018 239.121 234.248 241.351 236.999 241.351Z"
            fill="#3D2F95" />
        <path
            d="M236.999 166.013C239.75 166.013 241.98 163.783 241.98 161.032C241.98 158.281 239.75 156.051 236.999 156.051C234.248 156.051 232.018 158.281 232.018 161.032C232.018 163.783 234.248 166.013 236.999 166.013Z"
            fill="#3D2F95" />
        <path
            d="M236.999 265.134C239.75 265.134 241.98 262.904 241.98 260.153C241.98 257.402 239.75 255.172 236.999 255.172C234.248 255.172 232.018 257.402 232.018 260.153C232.018 262.904 234.248 265.134 236.999 265.134Z"
            fill="#3D2F95" />
        <path
            d="M236.999 189.796C239.75 189.796 241.98 187.566 241.98 184.815C241.98 182.064 239.75 179.834 236.999 179.834C234.248 179.834 232.018 182.064 232.018 184.815C232.018 187.566 234.248 189.796 236.999 189.796Z"
            fill="#3D2F95" />
        <path
            d="M236.999 213.706C239.75 213.706 241.98 211.476 241.98 208.725C241.98 205.974 239.75 203.744 236.999 203.744C234.248 203.744 232.018 205.974 232.018 208.725C232.018 211.476 234.248 213.706 236.999 213.706Z"
            fill="#3D2F95" />
        <path
            d="M264.145 241.351C266.896 241.351 269.126 239.121 269.126 236.37C269.126 233.619 266.896 231.389 264.145 231.389C261.394 231.389 259.164 233.619 259.164 236.37C259.164 239.121 261.394 241.351 264.145 241.351Z"
            fill="#3D2F95" />
        <path
            d="M264.145 166.013C266.896 166.013 269.126 163.783 269.126 161.032C269.126 158.281 266.896 156.051 264.145 156.051C261.394 156.051 259.164 158.281 259.164 161.032C259.164 163.783 261.394 166.013 264.145 166.013Z"
            fill="#3D2F95" />
        <path
            d="M264.145 265.134C266.896 265.134 269.126 262.904 269.126 260.153C269.126 257.402 266.896 255.172 264.145 255.172C261.394 255.172 259.164 257.402 259.164 260.153C259.164 262.904 261.394 265.134 264.145 265.134Z"
            fill="#3D2F95" />
        <path
            d="M264.145 189.796C266.896 189.796 269.126 187.566 269.126 184.815C269.126 182.064 266.896 179.834 264.145 179.834C261.394 179.834 259.164 182.064 259.164 184.815C259.164 187.566 261.394 189.796 264.145 189.796Z"
            fill="#3D2F95" />
        <path
            d="M264.145 213.706C266.896 213.706 269.126 211.476 269.126 208.725C269.126 205.974 266.896 203.744 264.145 203.744C261.394 203.744 259.164 205.974 259.164 208.725C259.164 211.476 261.394 213.706 264.145 213.706Z"
            fill="#3D2F95" />
        <path
            d="M1058.36 541.704C1058.38 536.838 1057.43 532.017 1055.58 527.517C1053.72 523.018 1051 518.928 1047.57 515.481C1044.13 512.034 1040.05 509.299 1035.56 507.431C1031.06 505.563 1026.25 504.6 1021.38 504.596H715.919C711.044 504.587 706.215 505.541 701.709 507.403C697.203 509.264 693.108 511.997 689.661 515.445C686.213 518.893 683.48 522.987 681.618 527.493C679.757 531.999 678.803 536.828 678.812 541.704V796.731C678.803 801.606 679.757 806.436 681.618 810.942C683.48 815.448 686.213 819.542 689.661 822.989C693.108 826.437 697.203 829.17 701.709 831.032C706.215 832.894 711.044 833.847 715.919 833.839H1021.38C1026.24 833.835 1031.06 832.871 1035.56 831.003C1040.05 829.136 1044.13 826.4 1047.57 822.953C1051 819.507 1053.72 815.417 1055.57 810.917C1057.43 806.418 1058.37 801.597 1058.36 796.731V541.704Z"
            fill="#DF2B4F" />
        <path
            d="M678.812 756.137H1058.36V796.737C1058.38 801.603 1057.43 806.424 1055.58 810.923C1053.72 815.423 1051 819.513 1047.57 822.959C1044.13 826.406 1040.05 829.142 1035.56 831.009C1031.06 832.877 1026.25 833.841 1021.38 833.845H715.921C711.045 833.853 706.215 832.9 701.709 831.038C697.203 829.176 693.109 826.443 689.661 822.996C686.214 819.548 683.48 815.454 681.619 810.948C679.757 806.442 678.803 801.612 678.812 796.737V756.137Z"
            fill="white" />
        <path
            d="M871.825 786.396C871.824 785.108 871.312 783.874 870.402 782.964C869.491 782.053 868.257 781.541 866.969 781.539H765.231C763.951 781.562 762.728 782.081 761.823 782.987C760.917 783.893 760.398 785.115 760.375 786.396C760.377 787.683 760.889 788.918 761.799 789.828C762.71 790.738 763.944 791.25 765.231 791.252H866.968C868.249 791.229 869.471 790.71 870.377 789.805C871.283 788.899 871.803 787.677 871.825 786.396Z"
            fill="#BBCDF7" />
        <path
            d="M836.584 805.572C836.583 804.284 836.071 803.05 835.161 802.139C834.25 801.229 833.016 800.716 831.728 800.715H765.107C763.827 800.738 762.604 801.257 761.699 802.163C760.793 803.069 760.274 804.291 760.251 805.572C760.253 806.859 760.765 808.093 761.675 809.004C762.586 809.914 763.82 810.426 765.107 810.428H831.728C832.369 810.437 833.005 810.318 833.598 810.078C834.192 809.837 834.731 809.48 835.183 809.027C835.636 808.574 835.994 808.035 836.234 807.441C836.475 806.848 836.594 806.212 836.584 805.572Z"
            fill="#BBCDF7" />
        <path
            d="M731.361 504.596H781.295C781.543 507.709 781.668 510.822 781.669 513.935C781.647 540.151 771.223 565.287 752.685 583.824C734.148 602.362 709.012 612.786 682.796 612.808C681.426 612.808 680.181 612.808 678.811 612.683V563.123C680.181 563.248 681.426 563.248 682.796 563.248C689.289 563.252 695.719 561.977 701.719 559.494C707.719 557.011 713.171 553.37 717.763 548.779C722.354 544.187 725.995 538.736 728.478 532.736C730.961 526.736 732.236 520.305 732.232 513.812C732.257 510.718 731.965 507.63 731.361 504.596Z"
            fill="#3F51B5" />
        <path
            d="M1034.45 586.284L1036.32 587.654C1036.65 588.354 1036.74 589.141 1036.57 589.895L1036.07 590.895C1022.62 607.83 1006.18 623.521 985.514 627.754C969.326 631.116 952.639 626.26 936.327 622.275C922.256 618.788 907.064 617.17 893.864 623.275C877.676 630.622 866.718 645.814 854.264 659.138C842.434 671.591 830.978 684.417 816.284 692.884C810.307 696.371 803.209 698.612 796.111 697.242C782.662 694.627 773.572 681.178 760.372 680.182C741.572 678.688 723.762 693.008 712.306 704.838L711.185 705.71L708.819 705.834C708.108 705.497 707.536 704.925 707.2 704.215C707.032 703.588 707.024 702.929 707.177 702.299C707.329 701.668 707.637 701.085 708.072 700.604L710.687 697.989C722.766 686.657 737.087 676.695 752.652 674.454C760.872 673.278 769.238 675.138 776.187 679.684C777.308 680.431 778.429 681.178 779.425 681.925C787.145 687.28 795.613 693.132 804.454 691.14C815.786 688.65 824.627 679.684 833.593 671.216C846.544 659.016 858 644.941 870.328 632.738C881.909 621.282 897.101 612.938 913.289 612.814C940.689 612.565 966.959 630.621 994.853 618.414C1009.8 611.814 1021.5 599.614 1031.21 587.158L1033.21 586.037C1033.59 586.227 1034.02 586.312 1034.45 586.284Z"
            fill="white" />
        <path
            d="M1058.36 723.136C1063.1 726.249 1074.55 733.472 1080.9 733.472C1089.12 733.472 1113.03 715.416 1113.03 715.416C1113.03 715.416 1103.19 755.516 1096.22 759.124C1090.12 762.237 1070.57 762.86 1058.36 758.377V723.136Z"
            fill="#DBD6F1" />
        <path
            d="M1058.49 757.137V723.137C1062.72 726.001 1072.69 732.352 1079.29 733.224C1078.54 750.159 1087.13 754.767 1087.13 754.767C1075.05 758.128 1065.59 758.627 1058.49 757.137Z"
            fill="#EA8853" />
        <path
            d="M891.874 871.57L896.357 869.453C907.689 863.725 926.242 854.012 943.302 845.046C960.362 836.08 1032.34 796.73 1032.34 796.73L1143.41 808.809L1105.68 820.888L906.942 912.414L902.833 902.95L891.874 871.57Z"
            fill="#B84816" />
        <path
            d="M1039.56 797.603C1041.43 805.203 1038.69 813.916 1035.2 816.282C1028.98 820.391 1009.43 826.867 997.844 834.089C986.139 841.311 986.14 850.277 946.416 872.189C924.375 884.389 908.186 888.377 898.099 889.622L891.874 871.69L896.232 869.573C907.564 863.845 926.117 854.132 943.177 845.166C960.361 836.2 1032.34 796.85 1032.34 796.85L1039.56 797.603Z"
            fill="#DE6830" />
        <path
            d="M891.874 871.57L902.832 902.95L868.463 918.516C868.463 918.516 832.849 863.227 828.491 854.635C824.133 846.043 836.585 856.378 845.302 862.605C853.894 868.831 868.713 880.412 871.702 879.665C878.62 877.479 885.363 874.773 891.874 871.57Z"
            fill="#3E3E3E" />
        <path
            d="M1167.82 696.738C1167.82 696.738 1157.99 687.772 1158.11 680.799C1158.24 673.826 1167.7 668.099 1166.21 653.528C1164.71 638.957 1152.51 635.347 1146.53 630.615C1140.55 625.758 1134.58 616.046 1126.48 618.785C1118.51 621.525 1111.79 627.875 1119.63 634.351C1112.72 643.559 1108.07 654.267 1106.06 665.607C1102.7 684.659 1106.31 691.633 1119.63 690.761C1133.45 689.889 1133.58 691.761 1136.07 701.097C1138.56 710.56 1167.82 696.738 1167.82 696.738Z"
            fill="#FFA473" />
        <path
            d="M1114.77 690.883C1120 689.513 1126.6 682.54 1131.09 676.314C1135.82 669.963 1141.8 668.967 1141.8 668.967C1146.03 666.601 1154.12 668.842 1160.47 673.948C1159.1 676.042 1158.25 678.432 1157.98 680.921C1157.86 687.147 1165.7 694.868 1167.32 696.487C1167.2 696.736 1166.82 696.987 1166.58 697.234C1162.2 699.195 1157.71 700.899 1153.13 702.339C1146.28 703.086 1139.93 702.214 1140.18 700.72C1140.68 697.731 1145.41 686.773 1130.46 689.513C1128.22 690.013 1125.98 690.26 1124.11 690.634C1122.74 690.634 1121.25 690.759 1119.63 690.759C1118.02 690.981 1116.39 691.023 1114.77 690.883Z"
            fill="#EA8853" />
        <path
            d="M1121.87 635.969L1119.51 634.475C1111.66 628 1114.77 615.921 1122.99 613.675C1133.45 610.811 1141.3 619.528 1147.77 626.501C1153.13 632.101 1167.57 634.101 1169.19 648.666C1170.56 661.617 1160.23 672.575 1158.48 678.676L1145.53 679.299C1141.42 676.435 1141.8 668.963 1141.8 668.963C1149.77 666.597 1151.26 657.507 1146.65 654.145C1142.17 650.658 1132.45 655.639 1126.35 650.036C1120.25 644.312 1121.87 635.969 1121.87 635.969Z"
            fill="#262626" />
        <path
            d="M976.178 929.099C976.178 929.099 967.586 925.239 965.718 922.375C963.85 919.511 966.465 918.141 968.582 914.904C970.699 911.667 995.853 857.623 1001.33 846.415C1006.69 835.208 1021.01 803.578 1028.48 796.605C1035.82 789.632 1052.51 785.647 1065.09 784.405C1077.66 783.284 1118.51 781.416 1118.51 781.416L1162.22 828.735L1159.6 835.957C1159.6 835.957 1140.42 843.057 1113.65 841.436C1086.88 839.815 1060.35 839.444 1060.35 839.444C1060.35 839.444 1032.09 892.244 1026.73 901.706C1021.25 911.17 1021.25 915.653 1015.03 926.237C1012.29 931.093 1009.43 936.448 1006.56 942.052C1003.07 940.433 997.219 937.943 991.74 935.577L976.178 929.099Z"
            fill="#B84816" />
        <path
            d="M991.868 935.576C997.347 937.942 1003.2 940.308 1006.69 942.051C1003.32 948.651 1000.09 955.624 996.724 961.975C990.747 973.68 989.004 974.926 989.004 974.926C989.004 974.926 962.231 972.186 946.915 970.817C931.474 969.447 919.395 967.704 917.154 966.957C914.913 966.334 923.505 961.478 937.576 958.365C946.946 956.174 956.144 953.303 965.096 949.773C966.466 949.273 974.933 931.592 976.303 928.973L991.868 935.576Z"
            fill="#3E3E3E" />
        <path
            d="M1103.44 782.162C1124.24 790.879 1120.38 809.807 1092.86 811.923C1064.59 814.04 1055.5 813.915 1046.04 827.862C1036.7 841.933 1020.26 872.068 999.962 904.569C987.262 924.869 975.057 926.112 967.71 924.244C966.948 923.642 966.24 922.976 965.593 922.252C963.725 919.388 966.465 918.018 968.582 914.781C970.699 911.544 995.728 857.5 1001.21 846.292C1006.69 835.084 1021.01 803.455 1028.35 796.482C1035.82 789.509 1052.39 785.524 1064.96 784.282C1072.56 783.781 1090.49 782.785 1103.44 782.162Z"
            fill="#DE6830" />
        <path
            d="M1118.38 772.201C1118.38 772.201 1112.41 781.789 1109.54 786.895C1106.8 792 1106.43 797.23 1114.28 803.955C1122 810.679 1137.19 831.973 1159.48 835.955C1159.48 835.955 1179.65 829.48 1186.38 798.847C1193.1 768.214 1187.25 738.577 1183.01 722.14C1178.66 705.827 1171.18 692.379 1159.1 691.507C1146.9 690.635 1128.6 691.258 1114.28 709.688C1099.96 728.118 1084.39 753.272 1074.8 753.77C1065.21 754.268 1029.72 737.831 1022.75 734.842C1015.65 731.978 1008.8 719.027 990.498 720.771C972.193 722.515 967.585 733.846 967.835 739.076C968.209 744.306 986.763 739.076 989.627 741.317C992.491 743.558 1000.09 749.162 1002.7 752.026C1005.19 754.89 1028.85 781.165 1055.25 788.885C1081.9 796.605 1094.1 793.119 1098.71 790.504C1104.56 787.393 1118.38 772.201 1118.38 772.201Z"
            fill="#DBD6F1" />
        <path
            d="M1149.14 691.508C1146.28 696.987 1131.58 706.7 1125.86 714.67C1113.9 731.481 1106.43 759.499 1090.99 768.465C1081.9 773.695 1078.91 761.243 1077.29 753.397C1087 749.163 1101.07 726.749 1114.15 709.938C1124.98 695.866 1138.06 692.131 1149.14 691.508Z"
            fill="white" />
        <path
            d="M1092.36 792.87C1085.51 794.364 1073.93 794.489 1055.13 789.01C1028.6 781.289 1005.07 755.01 1002.58 752.151C999.962 749.287 992.366 743.683 989.502 741.442C986.638 739.201 967.959 744.431 967.71 739.201C967.696 738.452 967.737 737.703 967.835 736.96C968.835 731.36 974.31 722.391 990.374 720.896C1008.68 719.153 1015.53 731.979 1022.63 734.967C1029.73 737.831 1064.96 754.393 1074.68 753.895C1075.6 753.881 1076.5 753.624 1077.29 753.148C1078.46 752.569 1079.59 751.904 1080.65 751.156C1080.03 757.651 1080.41 764.203 1081.78 770.582C1083.77 779.671 1089.62 788.885 1092.36 792.87Z"
            fill="#EA8853" />
        <path
            d="M967.835 737.087C968.835 731.487 974.435 722.518 990.374 721.023C1008.68 719.28 1015.53 732.106 1022.63 735.094C1029.73 737.958 1064.96 754.52 1074.68 754.022C1075.54 753.978 1076.39 753.767 1077.17 753.399C1077.28 754.238 1077.19 755.09 1076.92 755.89C1069.45 775.067 1045.29 770.584 1023.25 758.131C1001.08 745.679 996.601 733.973 982.405 736.464C973.812 737.83 969.703 737.581 967.835 737.087Z"
            fill="#FFA473" />
        <path
            d="M1118.38 772.2C1118.38 772.2 1137.44 747.419 1145.28 728.865C1145.28 728.865 1154.62 739.948 1149.02 751.778C1143.42 763.608 1140.3 766.846 1141.55 775.438C1142.8 784.03 1143.29 798.724 1136.32 806.818C1129.35 814.912 1124.49 812.546 1119.38 808.935C1119.2 808.842 1119.03 808.715 1118.88 808.561C1117.14 806.818 1115.65 805.199 1114.28 804.078C1106.43 797.354 1106.81 792.124 1109.55 787.018C1111.91 782.535 1116.89 774.565 1118.14 772.698L1118.38 772.2Z"
            fill="white" />
        <path
            d="M1077.04 755.762C1069.57 774.939 1045.41 770.456 1023.37 758.003C1001.33 745.55 996.599 733.845 982.528 736.336C973.811 737.83 969.828 737.581 967.959 737.083C968.959 731.483 974.435 722.514 990.499 721.019C1008.8 719.276 1015.65 732.102 1022.75 735.09C1029.85 737.954 1065.09 754.516 1074.8 754.018C1075.72 754.004 1076.63 753.747 1077.42 753.271C1077.42 754.116 1077.3 754.957 1077.04 755.762Z"
            fill="#FFA473" />
        <path
            d="M897.353 342.963C890.802 342.963 884.398 344.906 878.95 348.545C873.503 352.185 869.257 357.358 866.75 363.411C864.243 369.464 863.587 376.124 864.866 382.549C866.144 388.974 869.298 394.877 873.931 399.509C878.563 404.142 884.465 407.296 890.891 408.574C897.316 409.853 903.976 409.197 910.029 406.69C916.082 404.182 921.255 399.937 924.895 394.49C928.534 389.042 930.477 382.638 930.477 376.087C930.453 367.309 926.955 358.898 920.749 352.691C914.542 346.484 906.131 342.987 897.353 342.963ZM897.353 392.773C894.077 392.773 890.875 391.802 888.152 389.982C885.428 388.162 883.305 385.575 882.052 382.549C880.798 379.523 880.47 376.193 881.109 372.98C881.748 369.767 883.326 366.816 885.642 364.5C887.958 362.184 890.909 360.606 894.122 359.967C897.335 359.328 900.665 359.656 903.691 360.91C906.717 362.163 909.304 364.286 911.124 367.01C912.944 369.733 913.915 372.935 913.915 376.211C913.889 380.595 912.136 384.793 909.035 387.893C905.935 390.994 901.738 392.747 897.353 392.773Z"
            fill="#FFB000" />
        <path
            d="M1016.15 492.518C1020.41 492.518 1023.87 489.061 1023.87 484.797C1023.87 480.533 1020.41 477.076 1016.15 477.076C1011.89 477.076 1008.43 480.533 1008.43 484.797C1008.43 489.061 1011.89 492.518 1016.15 492.518Z"
            fill="white" />
        <path
            d="M1016.15 528.008C1020.41 528.008 1023.87 524.552 1023.87 520.287C1023.87 516.023 1020.41 512.566 1016.15 512.566C1011.89 512.566 1008.43 516.023 1008.43 520.287C1008.43 524.552 1011.89 528.008 1016.15 528.008Z"
            fill="white" />
        <path
            d="M1053.38 492.518C1057.65 492.518 1061.1 489.061 1061.1 484.797C1061.1 480.533 1057.65 477.076 1053.38 477.076C1049.12 477.076 1045.66 480.533 1045.66 484.797C1045.66 489.061 1049.12 492.518 1053.38 492.518Z"
            fill="white" />
        <path
            d="M1053.38 528.008C1057.65 528.008 1061.1 524.552 1061.1 520.287C1061.1 516.023 1057.65 512.566 1053.38 512.566C1049.12 512.566 1045.66 516.023 1045.66 520.287C1045.66 524.552 1049.12 528.008 1053.38 528.008Z"
            fill="white" />
        <path
            d="M1090.74 492.518C1095 492.518 1098.46 489.061 1098.46 484.797C1098.46 480.533 1095 477.076 1090.74 477.076C1086.48 477.076 1083.02 480.533 1083.02 484.797C1083.02 489.061 1086.48 492.518 1090.74 492.518Z"
            fill="white" />
        <path
            d="M1090.74 528.008C1095 528.008 1098.46 524.552 1098.46 520.287C1098.46 516.023 1095 512.566 1090.74 512.566C1086.48 512.566 1083.02 516.023 1083.02 520.287C1083.02 524.552 1086.48 528.008 1090.74 528.008Z"
            fill="white" />
        <path
            d="M990.211 120.003C990.211 122.709 992.404 124.901 995.109 124.901C997.814 124.901 1000.01 122.709 1000.01 120.003C1000.01 117.298 997.814 115.105 995.109 115.105C992.404 115.105 990.211 117.298 990.211 120.003Z"
            fill="white" />
        <path
            d="M967.536 120.003C967.536 122.709 969.729 124.901 972.434 124.901C975.139 124.901 977.332 122.709 977.332 120.003C977.332 117.298 975.139 115.105 972.434 115.105C969.729 115.105 967.536 117.298 967.536 120.003Z"
            fill="white" />
        <path
            d="M990.211 143.877C990.211 146.582 992.404 148.775 995.109 148.775C997.814 148.775 1000.01 146.582 1000.01 143.877C1000.01 141.171 997.814 138.979 995.109 138.979C992.404 138.979 990.211 141.171 990.211 143.877Z"
            fill="white" />
        <path
            d="M967.536 143.877C967.536 146.582 969.729 148.775 972.434 148.775C975.139 148.775 977.332 146.582 977.332 143.877C977.332 141.171 975.139 138.979 972.434 138.979C969.729 138.979 967.536 141.171 967.536 143.877Z"
            fill="white" />
        <path
            d="M990.211 167.752C990.211 170.457 992.404 172.65 995.109 172.65C997.814 172.65 1000.01 170.457 1000.01 167.752C1000.01 165.046 997.814 162.854 995.109 162.854C992.404 162.854 990.211 165.046 990.211 167.752Z"
            fill="white" />
        <path
            d="M967.536 167.752C967.536 170.457 969.729 172.65 972.434 172.65C975.139 172.65 977.332 170.457 977.332 167.752C977.332 165.046 975.139 162.854 972.434 162.854C969.729 162.854 967.536 165.046 967.536 167.752Z"
            fill="white" />
        <path fill-rule="evenodd" clip-rule="evenodd"
            d="M289.39 290.525C289.39 290.525 271.418 300.856 268.29 317.337C265.162 333.818 294.267 329.168 294.267 329.168L289.39 290.525Z"
            fill="#66BB6A" />
        <path fill-rule="evenodd" clip-rule="evenodd"
            d="M341.385 299.586C341.385 299.586 350.002 284.002 336.348 283.326C322.694 282.65 317.502 286.714 304.854 283.326C292.206 279.938 290.267 290.47 292.375 298.985C294.483 307.5 333.675 312.686 341.385 299.586Z"
            fill="#66BB6A" />
        <path fill-rule="evenodd" clip-rule="evenodd"
            d="M355.026 217.379C355.026 217.379 376.448 181.947 338.885 184.71C301.322 187.473 292.274 202.424 292.104 218.528C292.104 218.528 274.32 247.517 301.563 273.517C301.563 273.517 353.533 240.617 355.026 217.379Z"
            fill="#4F216C" />
        <path fill-rule="evenodd" clip-rule="evenodd"
            d="M197.622 914.562L190.722 947.055L206.881 949.885L218.245 921.984L197.622 914.562Z" fill="#FDBC9E" />
        <path fill-rule="evenodd" clip-rule="evenodd"
            d="M184.172 958.748L189.528 944.648L206.256 947.486C212.08 948.472 216.934 952.992 219.348 959.67C220.148 961.888 218.548 964.57 216.611 964.244L184.172 958.748Z"
            fill="#5F2883" />
        <path fill-rule="evenodd" clip-rule="evenodd"
            d="M464.15 418.735C432.129 418.802 400.909 402.091 375.022 383.553C360.337 373.038 347.364 361.932 336.95 352.974C326.658 344.123 322.25 330.394 328.826 318.546C330.642 315.293 333.121 312.457 336.104 310.224C339.086 307.99 342.505 306.409 346.138 305.582C349.771 304.756 353.537 304.702 357.193 305.425C360.848 306.148 364.31 307.632 367.355 309.779C379.455 318.327 392.8 328.759 406.2 338.611C428.3 354.884 450.543 369.605 467.548 371.762C521.106 378.551 591.213 348.054 594.223 358.005C598.923 373.505 507.523 418.64 464.15 418.736"
            fill="#66BB6A" />
        <path fill-rule="evenodd" clip-rule="evenodd"
            d="M405.668 339.858L374.693 384.72C360.103 374.22 347.217 363.14 336.872 354.196C326.648 345.361 322.272 331.656 328.801 319.829C330.592 316.585 333.049 313.755 336.009 311.526C338.969 309.297 342.367 307.717 345.979 306.891C349.592 306.065 353.338 306.011 356.973 306.732C360.608 307.453 364.05 308.934 367.074 311.077C379.097 319.61 392.353 330.023 405.664 339.858"
            fill="#66BB6A" />
        <path fill-rule="evenodd" clip-rule="evenodd"
            d="M391.25 918.486L386.626 952.501H371.442L366.351 918.486H391.25Z" fill="#FDBC9E" />
        <path fill-rule="evenodd" clip-rule="evenodd"
            d="M567.403 363.555C572.431 357.236 579.626 353.008 587.593 351.689C600.642 349.742 613.668 361.949 577.516 376.514C541.364 391.079 567.403 363.555 567.403 363.555Z"
            fill="#FDBC9E" />
        <path fill-rule="evenodd" clip-rule="evenodd"
            d="M418.774 522.086C418.774 522.086 415.397 666.093 413.088 724.214C410.816 781.314 391.188 926.337 391.188 926.337H368.517C368.517 926.337 349.704 749.997 346.517 710.35C343.198 669.099 316.55 522.087 316.55 522.087L418.774 522.086Z"
            fill="#00205A" />
        <path fill-rule="evenodd" clip-rule="evenodd"
            d="M329.651 511.621C329.651 511.621 317.343 673.841 302.229 730.179C287.115 786.517 217.221 925.034 217.221 925.034L195.967 921.401C195.967 921.401 235.229 749.69 237.667 712.61C240.399 671.208 224.815 515.134 224.815 515.134L329.651 511.621Z"
            fill="#00205A" />
        <path fill-rule="evenodd" clip-rule="evenodd"
            d="M223.491 520.778H418.774C411.889 456.589 407.019 393.361 390.524 341.325C386.615 329.194 378.949 318.621 368.634 311.135C358.319 303.649 345.891 299.639 333.146 299.684H293.697C279.716 299.658 266.162 304.502 255.366 313.385C244.569 322.267 237.204 334.633 234.536 348.357C223.982 403.114 224.823 460.674 223.491 520.778Z"
            fill="#66BB6A" />
        <path fill-rule="evenodd" clip-rule="evenodd"
            d="M374.324 431.469L386.009 379.598L342.774 375.562L337.516 456.833L367.897 457.982L374.324 431.469Z"
            fill="#DDDDF2" />
        <path fill-rule="evenodd" clip-rule="evenodd"
            d="M365.038 396.493C365.039 397.271 364.81 398.032 364.379 398.68C363.947 399.327 363.334 399.832 362.616 400.131C361.897 400.43 361.107 400.509 360.343 400.358C359.58 400.207 358.879 399.833 358.328 399.284C357.778 398.734 357.402 398.034 357.25 397.271C357.098 396.508 357.175 395.717 357.472 394.998C357.769 394.279 358.273 393.664 358.92 393.232C359.567 392.8 360.327 392.569 361.105 392.568C361.621 392.568 362.132 392.669 362.609 392.866C363.086 393.063 363.519 393.352 363.884 393.716C364.249 394.081 364.539 394.514 364.737 394.99C364.935 395.467 365.037 395.977 365.038 396.493Z"
            fill="white" />
        <path fill-rule="evenodd" clip-rule="evenodd"
            d="M341.073 425.644C349.313 449.402 218.547 486.097 205.024 467.105C188.969 444.553 196.337 390.297 210.982 363.719C220.182 347.019 230.482 332.049 238.79 319.966C246.49 308.783 259.682 302.912 272.162 308.182C275.593 309.639 278.679 311.801 281.22 314.529C283.76 317.256 285.699 320.488 286.909 324.013C288.119 327.539 288.574 331.279 288.245 334.992C287.915 338.705 286.808 342.307 284.996 345.565C278.467 357.307 270.828 372.002 262.871 386.419C255.402 399.951 246.617 423.254 247.398 428.054C248.598 435.445 337.653 415.772 341.073 425.642"
            fill="#66BB6A" />
        <path fill-rule="evenodd" clip-rule="evenodd"
            d="M331.137 425.193C336.31 418.952 343.609 414.846 351.629 413.666C364.79 411.924 377.701 424.306 341.11 438.278C304.519 452.25 331.137 425.193 331.137 425.193Z"
            fill="#FDBC9E" />
        <path fill-rule="evenodd" clip-rule="evenodd"
            d="M330.962 256.51V312.056C330.962 316.053 329.374 319.887 326.547 322.713C323.721 325.54 319.887 327.128 315.89 327.128C311.893 327.128 308.059 325.54 305.232 322.713C302.406 319.887 300.818 316.053 300.818 312.056V256.51H330.962Z"
            fill="#FDBC9E" />
        <path fill-rule="evenodd" clip-rule="evenodd"
            d="M367.175 965.587L369.984 950.744H386.594C392.375 950.744 397.814 954.402 401.262 960.601C402.405 962.66 401.306 965.587 399.384 965.587H367.175Z"
            fill="#5F2883" />
        <path fill-rule="evenodd" clip-rule="evenodd"
            d="M262.244 386.028L210.384 363.428C219.578 346.819 229.876 331.919 238.177 319.893C245.877 308.767 259.055 302.923 271.532 308.169C274.956 309.607 278.038 311.752 280.577 314.463C283.115 317.174 285.053 320.39 286.263 323.901C287.474 327.412 287.93 331.139 287.601 334.838C287.273 338.538 286.167 342.126 284.357 345.369C277.832 357.06 269.899 371.518 262.244 386.028Z"
            fill="#66BB6A" />
        <path d="M347.999 522.086C347.999 522.086 376.833 716.164 376.833 926.336" stroke="white" stroke-width="0.889"
            stroke-linecap="round" stroke-linejoin="round" />
        <path fill-rule="evenodd" clip-rule="evenodd"
            d="M330.962 259.603V293.979C330.962 293.979 310.142 298.679 300.818 278.405V256.51H317.818L330.962 259.603Z"
            fill="#BA8B81" />
        <path fill-rule="evenodd" clip-rule="evenodd"
            d="M327.614 280.059C320.506 280.059 313.689 277.235 308.664 272.209C303.638 267.183 300.814 260.367 300.814 253.259V206.797L354.55 206.804L354.407 227.604V253.263C354.407 260.371 351.583 267.187 346.557 272.213C341.531 277.239 334.715 280.063 327.607 280.063"
            fill="#FDBC9E" />
        <path fill-rule="evenodd" clip-rule="evenodd"
            d="M308.681 257.164C308.685 258.85 308.188 260.499 307.255 261.902C306.321 263.306 304.992 264.4 303.435 265.048C301.879 265.696 300.166 265.867 298.512 265.541C296.858 265.214 295.338 264.404 294.145 263.214C292.952 262.023 292.138 260.505 291.808 258.852C291.478 257.199 291.646 255.485 292.29 253.927C292.934 252.37 294.026 251.038 295.427 250.101C296.829 249.164 298.476 248.664 300.162 248.664C302.419 248.662 304.584 249.557 306.181 251.15C307.779 252.744 308.678 254.907 308.681 257.164Z"
            fill="#FDBC9E" />
        <path fill-rule="evenodd" clip-rule="evenodd"
            d="M341.447 522.086L336.619 637.211L324.409 570.101L328.669 522.377L341.447 522.086Z" fill="black"
            fill-opacity="0.2" />
        <path fill-rule="evenodd" clip-rule="evenodd"
            d="M319.167 448.822C319.167 448.822 258.495 493.539 224.659 499.844L223.491 471.755C223.491 471.755 265.491 473.186 319.167 448.822Z"
            fill="black" fill-opacity="0.2" />
        <path fill-rule="evenodd" clip-rule="evenodd"
            d="M380.766 323.23C380.766 323.23 390.055 337.451 392.666 349.351C395.277 361.251 403.407 392.018 403.697 402.176L424.017 410.883C424.017 410.883 404.567 340.645 380.766 323.23Z"
            fill="#66BB6A" />
        <path fill-rule="evenodd" clip-rule="evenodd"
            d="M295.575 216.437C295.575 216.437 329.75 229.204 354.991 217.673L357.174 202.262C330.274 194.022 308.234 195.674 295.575 216.437Z"
            fill="#4F216C" />
        <path fill-rule="evenodd" clip-rule="evenodd"
            d="M311.127 208.74C311.127 208.74 313.45 226.512 301.196 247.354L299.507 202.873L311.127 208.74Z"
            fill="#4F216C" />
        <path fill-rule="evenodd" clip-rule="evenodd"
            d="M307.791 230.346C307.791 230.346 294.724 258.254 315.853 264.946C326.511 268.325 330.007 261.382 337.827 264.946C345.647 268.51 354.558 254.674 354.558 254.674C354.558 254.674 354.052 277.403 327.619 279.91C298.191 282.702 298.191 245.261 298.191 245.261L307.791 230.346Z"
            fill="#4F216C" />
        <path fill-rule="evenodd" clip-rule="evenodd"
            d="M327.171 260.435L341.15 260.6C341.15 260.6 343.74 271.383 333.615 270.883C325.506 270.483 327.171 260.435 327.171 260.435Z"
            fill="white" />
        <path fill-rule="evenodd" clip-rule="evenodd"
            d="M295.486 283.982C295.486 283.982 284.586 290.882 285.108 302.238C285.63 313.594 301.508 326.838 309.402 328.386C317.296 329.934 312.818 307.591 311.078 306.721C309.338 305.851 298.423 300.996 295.486 283.982Z"
            fill="#66BB6A" />
        <path fill-rule="evenodd" clip-rule="evenodd"
            d="M343.674 287.908C343.674 287.908 346.04 301.431 345.197 309.991C344.354 318.551 336.297 329.491 331.908 328.391C327.519 327.291 328.252 314.614 328.642 312.902C329.032 311.19 343.673 287.909 343.673 287.909"
            fill="#66BB6A" />
        <path
            d="M311.303 323.23C311.303 323.23 324.186 346.374 316.973 379.01C309.76 411.646 313.538 413.5 313.538 413.5"
            stroke="#FFCACA" stroke-width="1.776" />
        <path
            d="M334.894 324.539C334.894 324.539 332.194 348.051 334.894 369.339C336.478 383.143 336.478 397.083 334.894 410.887"
            stroke="#FFCACA" stroke-width="1.776" />
        <path d="M223.491 511.621C223.491 511.621 393.961 505.733 417.463 511.621" stroke="#FFCACA"
            stroke-width="1.776" />
        <path fill-rule="evenodd" clip-rule="evenodd"
            d="M271.808 372.944L260.998 409.607C260.747 410.482 260.679 411.398 260.798 412.3C260.916 413.202 261.219 414.07 261.688 414.85C262.156 415.629 262.78 416.304 263.52 416.833C264.261 417.361 265.102 417.731 265.992 417.92L296.883 424.859C296.883 424.859 262.483 429.439 251.371 427.343C238.432 424.902 271.808 372.944 271.808 372.944Z"
            fill="black" fill-opacity="0.2" />
        <path
            d="M205.142 925.028C205.142 925.028 255.349 745.055 263.515 692.757C271.681 640.459 271.984 522.086 271.984 522.086"
            stroke="white" stroke-width="0.889" stroke-linecap="round" stroke-linejoin="round" />
        <path
            d="M460.378 470.04C458.274 470.048 456.18 469.759 454.158 469.18C452.369 468.705 450.69 467.883 449.218 466.76L451.218 462.28C453.906 464.182 457.125 465.19 460.418 465.16C461.862 465.242 463.303 464.946 464.598 464.3C465.043 464.073 465.415 463.726 465.673 463.299C465.931 462.871 466.064 462.38 466.058 461.88C466.057 461.434 465.931 460.997 465.694 460.618C465.457 460.24 465.119 459.936 464.718 459.74C463.23 459.021 461.647 458.516 460.018 458.24C457.954 457.875 455.945 457.25 454.038 456.38C452.735 455.796 451.616 454.87 450.798 453.7C450.082 452.514 449.727 451.145 449.778 449.76C449.758 448.116 450.255 446.507 451.198 445.16C452.204 443.752 453.582 442.651 455.178 441.98C457.049 441.188 459.066 440.799 461.098 440.84C463.078 440.833 465.048 441.13 466.938 441.72C468.587 442.188 470.115 443.007 471.418 444.12L469.418 448.6C467.062 446.733 464.144 445.718 461.138 445.72C459.791 445.654 458.455 445.988 457.298 446.68C456.851 446.95 456.483 447.331 456.23 447.788C455.977 448.244 455.849 448.759 455.858 449.28C455.838 449.861 456.03 450.43 456.398 450.88C456.904 451.402 457.528 451.793 458.218 452.02C459.403 452.445 460.62 452.773 461.858 453C465.511 453.8 468.144 454.84 469.758 456.12C470.548 456.739 471.179 457.537 471.6 458.448C472.021 459.359 472.219 460.358 472.178 461.36C472.218 462.592 471.954 463.815 471.41 464.92C470.866 466.026 470.058 466.981 469.058 467.7C466.978 469.26 464.084 470.04 460.378 470.04ZM494.498 460.04H481.138C481.101 461.556 481.629 463.031 482.618 464.18C483.153 464.645 483.775 464.999 484.448 465.222C485.121 465.445 485.831 465.533 486.538 465.48C487.599 465.477 488.653 465.301 489.658 464.96C490.695 464.615 491.668 464.102 492.538 463.44L494.138 467.52C493.071 468.349 491.856 468.966 490.558 469.34C489.166 469.775 487.716 469.997 486.258 470C482.844 470 480.164 469.06 478.218 467.18C477.223 466.17 476.449 464.964 475.946 463.638C475.443 462.312 475.223 460.896 475.298 459.48C475.264 457.572 475.697 455.684 476.558 453.98C477.354 452.414 478.582 451.109 480.098 450.22C481.665 449.315 483.448 448.851 485.258 448.88C486.52 448.819 487.779 449.036 488.948 449.516C490.116 449.997 491.164 450.729 492.018 451.66C493.757 453.76 494.642 456.438 494.498 459.16V460.04ZM485.418 453.12C484.396 453.075 483.397 453.434 482.638 454.12C481.868 454.915 481.383 455.941 481.258 457.04H489.298C488.978 454.427 487.684 453.12 485.418 453.12ZM510.818 448.88C515.618 448.88 518.018 451.72 518.018 457.4V469.68H511.978V457.68C512.066 456.589 511.792 455.5 511.198 454.58C510.892 454.237 510.511 453.969 510.084 453.799C509.657 453.629 509.196 453.561 508.738 453.6C508.144 453.574 507.551 453.674 507 453.895C506.448 454.116 505.949 454.452 505.538 454.88C504.704 455.826 504.273 457.061 504.338 458.32V469.68H498.298V455.2C498.31 453.262 498.204 451.325 497.978 449.4H503.658L504.058 452.6C504.733 451.444 505.707 450.491 506.878 449.84C508.087 449.188 509.444 448.857 510.818 448.88ZM530.578 470C526.738 470 523.711 469.174 521.498 467.52L523.098 463.32C524.181 464.102 525.383 464.703 526.658 465.1C527.951 465.512 529.3 465.721 530.658 465.72C531.485 465.766 532.311 465.601 533.058 465.24C533.316 465.11 533.532 464.91 533.681 464.662C533.829 464.414 533.905 464.129 533.898 463.84C533.905 463.606 533.855 463.374 533.75 463.164C533.645 462.955 533.49 462.775 533.298 462.64C532.647 462.252 531.927 461.994 531.178 461.88L527.858 461.12C526.259 460.865 524.767 460.157 523.558 459.08C523.089 458.585 522.726 458 522.489 457.361C522.252 456.722 522.146 456.041 522.178 455.36C522.164 454.15 522.551 452.968 523.278 452C524.069 450.969 525.127 450.174 526.338 449.7C527.775 449.129 529.312 448.85 530.858 448.88C532.297 448.88 533.727 449.103 535.098 449.54C536.431 449.953 537.687 450.582 538.818 451.4L537.138 455.44C536.158 454.751 535.088 454.199 533.958 453.8C532.95 453.44 531.888 453.25 530.818 453.24C530.011 453.197 529.209 453.377 528.498 453.76C528.24 453.901 528.025 454.11 527.877 454.363C527.729 454.617 527.653 454.907 527.658 455.2C527.651 455.41 527.693 455.618 527.78 455.809C527.866 455.999 527.996 456.168 528.158 456.3C528.691 456.664 529.3 456.903 529.938 457L533.338 457.76C535.018 458.041 536.584 458.79 537.858 459.92C538.335 460.435 538.705 461.04 538.945 461.699C539.185 462.359 539.292 463.059 539.258 463.76C539.284 464.654 539.085 465.54 538.68 466.336C538.274 467.133 537.675 467.815 536.938 468.32C535.048 469.537 532.822 470.125 530.578 470ZM562.298 449.4V469.68H556.418V466.72C555.817 467.749 554.945 468.593 553.898 469.16C552.813 469.731 551.603 470.02 550.378 470C547.844 470 545.951 469.294 544.698 467.88C543.444 466.467 542.818 464.334 542.818 461.48V449.4H548.858V461.6C548.858 464.054 549.911 465.28 552.018 465.28C552.587 465.301 553.154 465.198 553.679 464.977C554.205 464.756 554.675 464.422 555.058 464C555.859 463.069 556.274 461.867 556.218 460.64V449.4H562.298ZM574.938 470C571.098 470 568.071 469.174 565.858 467.52L567.458 463.32C568.541 464.102 569.743 464.703 571.018 465.1C572.311 465.512 573.66 465.721 575.018 465.72C575.845 465.766 576.671 465.601 577.418 465.24C577.676 465.11 577.892 464.91 578.041 464.662C578.189 464.414 578.265 464.129 578.258 463.84C578.265 463.606 578.215 463.374 578.11 463.164C578.005 462.955 577.85 462.775 577.658 462.64C577.007 462.252 576.287 461.994 575.538 461.88L572.218 461.12C570.619 460.865 569.127 460.157 567.918 459.08C567.449 458.585 567.086 458 566.849 457.361C566.612 456.722 566.506 456.041 566.538 455.36C566.524 454.15 566.911 452.968 567.638 452C568.429 450.969 569.487 450.174 570.698 449.7C572.135 449.129 573.672 448.85 575.218 448.88C576.657 448.88 578.087 449.103 579.458 449.54C580.791 449.953 582.047 450.582 583.178 451.4L581.498 455.44C580.518 454.751 579.448 454.199 578.318 453.8C577.31 453.44 576.248 453.25 575.178 453.24C574.371 453.197 573.569 453.377 572.858 453.76C572.6 453.901 572.385 454.11 572.237 454.363C572.089 454.617 572.013 454.907 572.018 455.2C572.011 455.41 572.053 455.618 572.14 455.809C572.226 455.999 572.356 456.168 572.518 456.3C573.051 456.664 573.66 456.903 574.298 457L577.698 457.76C579.378 458.041 580.944 458.79 582.218 459.92C582.695 460.435 583.065 461.04 583.305 461.699C583.545 462.359 583.652 463.059 583.618 463.76C583.644 464.654 583.445 465.54 583.04 466.336C582.634 467.133 582.035 467.815 581.298 468.32C579.408 469.537 577.182 470.125 574.938 470ZM595.058 470C591.218 470 588.191 469.174 585.978 467.52L587.578 463.32C588.661 464.102 589.863 464.703 591.138 465.1C592.431 465.512 593.78 465.721 595.138 465.72C595.965 465.766 596.791 465.601 597.538 465.24C597.796 465.11 598.012 464.91 598.161 464.662C598.309 464.414 598.385 464.129 598.378 463.84C598.385 463.606 598.335 463.374 598.23 463.164C598.125 462.955 597.97 462.775 597.778 462.64C597.127 462.252 596.407 461.994 595.658 461.88L592.338 461.12C590.739 460.865 589.247 460.157 588.038 459.08C587.569 458.585 587.206 458 586.969 457.361C586.732 456.722 586.626 456.041 586.658 455.36C586.644 454.15 587.031 452.968 587.758 452C588.549 450.969 589.607 450.174 590.818 449.7C592.255 449.129 593.792 448.85 595.338 448.88C596.777 448.88 598.207 449.103 599.578 449.54C600.911 449.953 602.167 450.582 603.298 451.4L601.618 455.44C600.638 454.751 599.568 454.199 598.438 453.8C597.43 453.44 596.368 453.25 595.298 453.24C594.491 453.197 593.689 453.377 592.978 453.76C592.72 453.901 592.505 454.11 592.357 454.363C592.209 454.617 592.133 454.907 592.138 455.2C592.131 455.41 592.173 455.618 592.26 455.809C592.346 455.999 592.476 456.168 592.638 456.3C593.171 456.664 593.78 456.903 594.418 457L597.818 457.76C599.498 458.041 601.064 458.79 602.338 459.92C602.815 460.435 603.185 461.04 603.425 461.699C603.665 462.359 603.772 463.059 603.738 463.76C603.764 464.654 603.565 465.54 603.16 466.336C602.754 467.133 602.155 467.815 601.418 468.32C599.528 469.537 597.302 470.125 595.058 470ZM617.098 470C615.135 470.046 613.19 469.606 611.438 468.72C609.855 467.897 608.558 466.614 607.718 465.04C606.821 463.313 606.373 461.387 606.418 459.44C606.373 457.494 606.821 455.568 607.718 453.84C608.558 452.266 609.855 450.983 611.438 450.16C613.19 449.274 615.135 448.835 617.098 448.88C619.042 448.836 620.966 449.276 622.698 450.16C624.272 450.988 625.561 452.27 626.398 453.84C627.295 455.568 627.742 457.494 627.698 459.44C627.742 461.387 627.295 463.313 626.398 465.04C625.561 466.61 624.272 467.892 622.698 468.72C620.966 469.605 619.042 470.044 617.098 470ZM617.098 465.4C617.744 465.44 618.391 465.327 618.985 465.069C619.579 464.812 620.104 464.419 620.518 463.92C621.4 462.601 621.816 461.024 621.698 459.44C621.81 457.864 621.395 456.295 620.518 454.98C620.108 454.477 619.584 454.078 618.989 453.817C618.394 453.557 617.746 453.441 617.098 453.48C616.441 453.44 615.783 453.554 615.179 453.815C614.574 454.075 614.039 454.475 613.618 454.98C612.727 456.29 612.304 457.861 612.418 459.44C612.418 463.414 613.978 465.4 617.098 465.4ZM642.018 445C641.198 444.96 640.395 445.239 639.778 445.78C639.472 446.116 639.239 446.511 639.095 446.942C638.95 447.372 638.897 447.828 638.938 448.28V449.4H643.178V453.92H638.938V469.68H632.898V453.92H629.098V449.4H632.898V448.12C632.762 445.956 633.464 443.822 634.858 442.16C635.599 441.423 636.49 440.853 637.469 440.488C638.449 440.122 639.495 439.97 640.538 440.04C641.706 440.006 642.872 440.182 643.978 440.56V445.28C643.337 445.112 642.68 445.018 642.018 445ZM653.178 453.92V461.8C653.138 462.25 653.197 462.702 653.349 463.127C653.5 463.551 653.742 463.938 654.058 464.26C654.693 464.798 655.507 465.076 656.338 465.04C657.013 465.028 657.685 464.934 658.338 464.76V469.44C657.222 469.84 656.042 470.03 654.858 470C653.806 470.072 652.75 469.92 651.761 469.555C650.772 469.189 649.871 468.619 649.118 467.88C647.712 466.224 647.002 464.088 647.138 461.92V453.92H643.298V449.4H647.138V444.64L653.178 442.68V449.4H658.338V453.92H653.178ZM683.018 470.04C680.914 470.048 678.82 469.759 676.798 469.18C675.009 468.705 673.33 467.883 671.858 466.76L673.858 462.28C676.546 464.182 679.765 465.19 683.058 465.16C684.502 465.242 685.943 464.946 687.238 464.3C687.683 464.073 688.055 463.726 688.313 463.299C688.571 462.871 688.704 462.38 688.698 461.88C688.697 461.434 688.571 460.997 688.334 460.618C688.097 460.24 687.759 459.936 687.358 459.74C685.87 459.021 684.287 458.516 682.658 458.24C680.594 457.875 678.585 457.25 676.678 456.38C675.375 455.796 674.256 454.87 673.438 453.7C672.722 452.514 672.367 451.145 672.418 449.76C672.398 448.116 672.895 446.507 673.838 445.16C674.844 443.752 676.222 442.651 677.818 441.98C679.689 441.188 681.706 440.799 683.738 440.84C685.718 440.833 687.688 441.13 689.578 441.72C691.227 442.188 692.755 443.007 694.058 444.12L692.058 448.6C689.702 446.733 686.784 445.718 683.778 445.72C682.431 445.654 681.095 445.988 679.938 446.68C679.491 446.95 679.123 447.331 678.87 447.788C678.617 448.244 678.489 448.759 678.498 449.28C678.478 449.861 678.67 450.43 679.038 450.88C679.544 451.402 680.168 451.793 680.858 452.02C682.043 452.445 683.26 452.773 684.498 453C688.151 453.8 690.784 454.84 692.398 456.12C693.188 456.739 693.819 457.537 694.24 458.448C694.661 459.359 694.859 460.358 694.818 461.36C694.858 462.592 694.594 463.815 694.05 464.92C693.506 466.026 692.698 466.981 691.698 467.7C689.618 469.26 686.724 470.04 683.018 470.04ZM708.618 470C706.655 470.046 704.71 469.606 702.958 468.72C701.375 467.897 700.078 466.614 699.238 465.04C698.341 463.313 697.893 461.387 697.938 459.44C697.893 457.494 698.341 455.568 699.238 453.84C700.078 452.266 701.375 450.983 702.958 450.16C704.71 449.274 706.655 448.835 708.618 448.88C710.562 448.836 712.486 449.276 714.218 450.16C715.792 450.988 717.081 452.27 717.918 453.84C718.815 455.568 719.262 457.494 719.218 459.44C719.262 461.387 718.815 463.313 717.918 465.04C717.081 466.61 715.792 467.892 714.218 468.72C712.486 469.605 710.562 470.044 708.618 470ZM708.618 465.4C709.264 465.44 709.911 465.327 710.505 465.069C711.099 464.812 711.624 464.419 712.038 463.92C712.92 462.601 713.336 461.024 713.218 459.44C713.33 457.864 712.915 456.295 712.038 454.98C711.628 454.477 711.104 454.078 710.509 453.817C709.914 453.557 709.266 453.441 708.618 453.48C707.961 453.44 707.303 453.554 706.699 453.815C706.094 454.075 705.559 454.475 705.138 454.98C704.247 456.29 703.824 457.861 703.938 459.44C703.938 463.414 705.498 465.4 708.618 465.4ZM733.538 445C732.718 444.96 731.915 445.239 731.298 445.78C730.992 446.116 730.759 446.511 730.615 446.942C730.47 447.372 730.417 447.828 730.458 448.28V449.4H734.698V453.92H730.458V469.68H724.418V453.92H720.618V449.4H724.418V448.12C724.282 445.956 724.984 443.822 726.378 442.16C727.119 441.423 728.01 440.853 728.989 440.488C729.969 440.122 731.015 439.97 732.058 440.04C733.226 440.006 734.392 440.182 735.498 440.56V445.28C734.857 445.112 734.2 445.018 733.538 445ZM744.698 453.92V461.8C744.658 462.25 744.717 462.702 744.869 463.127C745.02 463.551 745.262 463.938 745.578 464.26C746.213 464.798 747.027 465.076 747.858 465.04C748.533 465.028 749.205 464.934 749.858 464.76V469.44C748.742 469.84 747.562 470.03 746.378 470C745.326 470.072 744.27 469.92 743.281 469.555C742.292 469.189 741.391 468.619 740.638 467.88C739.232 466.224 738.522 464.088 738.658 461.92V453.92H734.818V449.4H738.658V444.64L744.698 442.68V449.4H749.858V453.92H744.698ZM786.498 449.4L778.298 469.68H773.218L768.618 457.92L764.218 469.68H759.098L750.898 449.4H757.058L761.938 462.48L766.778 449.4H770.898L775.778 462.6L780.658 449.4H786.498ZM808.898 449.4V469.68H802.938V466.68C802.32 467.724 801.419 468.57 800.338 469.12C799.162 469.72 797.857 470.022 796.538 470C794.893 470.032 793.275 469.588 791.878 468.72C790.496 467.827 789.4 466.557 788.718 465.06C787.928 463.336 787.539 461.456 787.578 459.56C787.543 457.646 787.933 455.747 788.718 454C789.4 452.465 790.502 451.155 791.898 450.22C793.276 449.321 794.892 448.855 796.538 448.88C797.862 448.858 799.17 449.175 800.338 449.8C801.415 450.373 802.315 451.231 802.938 452.28V449.4H808.898ZM798.298 465.4C798.951 465.438 799.603 465.319 800.201 465.055C800.799 464.791 801.326 464.388 801.738 463.88C802.62 462.59 803.042 461.04 802.938 459.48C803.04 457.915 802.618 456.359 801.738 455.06C801.329 454.547 800.804 454.14 800.205 453.872C799.607 453.604 798.953 453.483 798.298 453.52C797.632 453.488 796.968 453.616 796.362 453.895C795.756 454.173 795.227 454.594 794.818 455.12C793.921 456.421 793.485 457.983 793.578 459.56C793.474 461.104 793.904 462.637 794.798 463.9C795.224 464.405 795.763 464.804 796.37 465.064C796.978 465.324 797.638 465.44 798.298 465.4ZM825.578 448.92C826.318 448.898 827.054 449.035 827.738 449.32L827.698 454.84C826.772 454.401 825.762 454.169 824.738 454.16C824.071 454.114 823.402 454.206 822.772 454.429C822.143 454.653 821.566 455.004 821.078 455.46C820.639 455.951 820.302 456.523 820.086 457.144C819.87 457.766 819.778 458.424 819.818 459.08V469.68H813.778V455.2C813.79 453.262 813.684 451.325 813.458 449.4H819.138L819.538 452.88C819.99 451.667 820.826 450.635 821.918 449.94C823.014 449.256 824.285 448.901 825.578 448.92ZM847.978 460.04H834.618C834.581 461.556 835.109 463.031 836.098 464.18C836.633 464.645 837.255 464.999 837.928 465.222C838.601 465.445 839.311 465.533 840.018 465.48C841.079 465.477 842.133 465.301 843.138 464.96C844.175 464.615 845.148 464.102 846.018 463.44L847.618 467.52C846.551 468.349 845.336 468.966 844.038 469.34C842.646 469.775 841.196 469.997 839.738 470C836.324 470 833.644 469.06 831.698 467.18C830.703 466.17 829.929 464.964 829.426 463.638C828.923 462.312 828.703 460.896 828.778 459.48C828.744 457.572 829.177 455.684 830.038 453.98C830.834 452.414 832.062 451.109 833.578 450.22C835.145 449.315 836.928 448.851 838.738 448.88C840 448.819 841.259 449.036 842.428 449.516C843.596 449.997 844.644 450.729 845.498 451.66C847.237 453.76 848.122 456.438 847.978 459.16V460.04ZM838.898 453.12C837.876 453.075 836.877 453.434 836.118 454.12C835.348 454.915 834.863 455.941 834.738 457.04H842.778C842.458 454.427 841.164 453.12 838.898 453.12Z"
            fill="#00205A" />
        <rect x="446" y="432" width="417" height="42" fill="white" />
        <path
            d="M577.349 442.9C578.493 442.9 579.56 443.23 580.55 443.89C581.562 444.55 582.376 445.441 582.992 446.563C583.608 447.685 583.916 448.939 583.916 450.325C583.916 451.689 583.608 452.932 582.992 454.054C582.376 455.176 581.562 456.078 580.55 456.76C579.56 457.42 578.493 457.75 577.349 457.75H571.277L571.607 457.156V463.987C571.607 464.559 571.431 465.043 571.079 465.439C570.727 465.813 570.265 466 569.693 466C569.143 466 568.692 465.813 568.34 465.439C567.988 465.043 567.812 464.559 567.812 463.987V444.913C567.812 444.341 567.999 443.868 568.373 443.494C568.769 443.098 569.253 442.9 569.825 442.9H577.349ZM577.349 453.988C577.767 453.988 578.174 453.812 578.57 453.46C578.966 453.108 579.296 452.657 579.56 452.107C579.824 451.535 579.956 450.941 579.956 450.325C579.956 449.687 579.824 449.093 579.56 448.543C579.296 447.993 578.966 447.553 578.57 447.223C578.174 446.871 577.767 446.695 577.349 446.695H571.211L571.607 446.101V454.516L571.244 453.988H577.349ZM594.856 448.081L587.728 464.845C587.574 465.263 587.332 465.593 587.002 465.835C586.694 466.055 586.353 466.165 585.979 466.165C585.385 466.165 584.945 466 584.659 465.67C584.373 465.34 584.23 464.933 584.23 464.449C584.23 464.251 584.263 464.042 584.329 463.822L592.546 444.088C592.722 443.648 592.986 443.307 593.338 443.065C593.712 442.823 594.108 442.724 594.526 442.768C594.922 442.768 595.285 442.889 595.615 443.131C595.967 443.351 596.22 443.67 596.374 444.088L604.492 463.426C604.602 463.712 604.657 463.976 604.657 464.218C604.657 464.812 604.459 465.285 604.063 465.637C603.689 465.989 603.271 466.165 602.809 466.165C602.413 466.165 602.05 466.044 601.72 465.802C601.412 465.56 601.17 465.23 600.994 464.812L593.899 448.279L594.856 448.081ZM588.751 460.819L590.566 457.024H599.476L600.103 460.819H588.751ZM609.827 466C609.211 466 608.661 465.813 608.177 465.439C607.693 465.043 607.451 464.559 607.451 463.987V444.913C607.451 444.341 607.638 443.868 608.012 443.494C608.408 443.098 608.892 442.9 609.464 442.9H618.968C620.112 442.9 621.179 443.208 622.169 443.824C623.181 444.418 623.995 445.254 624.611 446.332C625.227 447.388 625.535 448.609 625.535 449.995C625.535 450.831 625.359 451.645 625.007 452.437C624.677 453.229 624.215 453.944 623.621 454.582C623.049 455.22 622.4 455.715 621.674 456.067L621.707 455.308C622.323 455.638 622.829 456.034 623.225 456.496C623.643 456.936 623.962 457.42 624.182 457.948C624.424 458.454 624.567 459.004 624.611 459.598C624.699 460.148 624.754 460.632 624.776 461.05C624.82 461.468 624.886 461.82 624.974 462.106C625.084 462.392 625.282 462.612 625.568 462.766C626.052 463.052 626.349 463.47 626.459 464.02C626.591 464.548 626.47 465.021 626.096 465.439C625.854 465.725 625.546 465.912 625.172 466C624.798 466.066 624.424 466.066 624.05 466C623.676 465.912 623.368 465.802 623.126 465.67C622.752 465.45 622.378 465.131 622.004 464.713C621.63 464.273 621.322 463.69 621.08 462.964C620.86 462.238 620.75 461.303 620.75 460.159C620.75 459.785 620.684 459.444 620.552 459.136C620.42 458.806 620.233 458.531 619.991 458.311C619.749 458.069 619.441 457.893 619.067 457.783C618.693 457.651 618.253 457.585 617.747 457.585H611.081L611.576 456.826V463.987C611.576 464.559 611.422 465.043 611.114 465.439C610.806 465.813 610.377 466 609.827 466ZM611.114 454.186H618.803C619.199 454.186 619.584 454.01 619.958 453.658C620.332 453.284 620.64 452.789 620.882 452.173C621.124 451.535 621.245 450.842 621.245 450.094C621.245 449.126 620.981 448.323 620.453 447.685C619.947 447.025 619.397 446.695 618.803 446.695H611.18L611.576 445.639V454.978L611.114 454.186ZM646.012 466C645.396 466 644.901 465.747 644.527 465.241L636.904 455.209L639.907 452.14L647.794 462.568C648.102 462.986 648.256 463.437 648.256 463.921C648.256 464.537 648.025 465.043 647.563 465.439C647.101 465.813 646.584 466 646.012 466ZM646.408 442.735C646.936 442.735 647.365 442.955 647.695 443.395C648.047 443.813 648.223 444.242 648.223 444.682C648.223 445.144 648.025 445.573 647.629 445.969L633.802 459.202L633.637 454.483L644.791 443.494C645.297 442.988 645.836 442.735 646.408 442.735ZM632.152 466C631.536 466 631.041 465.813 630.667 465.439C630.293 465.043 630.106 464.559 630.106 463.987V444.913C630.106 444.341 630.304 443.868 630.7 443.494C631.096 443.098 631.602 442.9 632.218 442.9C632.834 442.9 633.318 443.098 633.67 443.494C634.044 443.868 634.231 444.341 634.231 444.913V463.987C634.231 464.559 634.044 465.043 633.67 465.439C633.296 465.813 632.79 466 632.152 466ZM663.091 442.9C663.619 442.9 664.081 443.098 664.477 443.494C664.895 443.868 665.104 444.341 665.104 444.913V463.987C665.104 464.559 664.895 465.043 664.477 465.439C664.059 465.813 663.575 466 663.025 466C662.409 466 661.914 465.813 661.54 465.439C661.166 465.043 660.979 464.559 660.979 463.987V444.913C660.979 444.341 661.177 443.868 661.573 443.494C661.969 443.098 662.475 442.9 663.091 442.9ZM677.71 442.9C678.326 442.9 678.821 443.098 679.195 443.494C679.569 443.868 679.756 444.341 679.756 444.913V463.987C679.756 464.559 679.558 465.043 679.162 465.439C678.788 465.813 678.282 466 677.644 466C677.116 466 676.643 465.813 676.225 465.439C675.829 465.043 675.631 464.559 675.631 463.987V444.913C675.631 444.341 675.84 443.868 676.258 443.494C676.676 443.098 677.16 442.9 677.71 442.9ZM662.992 452.503H677.71V456.298H662.992V452.503ZM686.711 442.9H697.766C698.338 442.9 698.811 443.087 699.185 443.461C699.581 443.813 699.779 444.275 699.779 444.847C699.779 445.397 699.581 445.848 699.185 446.2C698.811 446.53 698.338 446.695 697.766 446.695H688.526L688.823 446.134V452.569L688.559 452.305H696.281C696.853 452.305 697.326 452.492 697.7 452.866C698.096 453.218 698.294 453.68 698.294 454.252C698.294 454.802 698.096 455.253 697.7 455.605C697.326 455.935 696.853 456.1 696.281 456.1H688.658L688.823 455.836V462.502L688.559 462.205H697.766C698.338 462.205 698.811 462.403 699.185 462.799C699.581 463.173 699.779 463.613 699.779 464.119C699.779 464.669 699.581 465.12 699.185 465.472C698.811 465.824 698.338 466 697.766 466H686.711C686.139 466 685.655 465.813 685.259 465.439C684.885 465.043 684.698 464.559 684.698 463.987V444.913C684.698 444.341 684.885 443.868 685.259 443.494C685.655 443.098 686.139 442.9 686.711 442.9ZM705.959 466C705.343 466 704.793 465.813 704.309 465.439C703.825 465.043 703.583 464.559 703.583 463.987V444.913C703.583 444.341 703.77 443.868 704.144 443.494C704.54 443.098 705.024 442.9 705.596 442.9H715.1C716.244 442.9 717.311 443.208 718.301 443.824C719.313 444.418 720.127 445.254 720.743 446.332C721.359 447.388 721.667 448.609 721.667 449.995C721.667 450.831 721.491 451.645 721.139 452.437C720.809 453.229 720.347 453.944 719.753 454.582C719.181 455.22 718.532 455.715 717.806 456.067L717.839 455.308C718.455 455.638 718.961 456.034 719.357 456.496C719.775 456.936 720.094 457.42 720.314 457.948C720.556 458.454 720.699 459.004 720.743 459.598C720.831 460.148 720.886 460.632 720.908 461.05C720.952 461.468 721.018 461.82 721.106 462.106C721.216 462.392 721.414 462.612 721.7 462.766C722.184 463.052 722.481 463.47 722.591 464.02C722.723 464.548 722.602 465.021 722.228 465.439C721.986 465.725 721.678 465.912 721.304 466C720.93 466.066 720.556 466.066 720.182 466C719.808 465.912 719.5 465.802 719.258 465.67C718.884 465.45 718.51 465.131 718.136 464.713C717.762 464.273 717.454 463.69 717.212 462.964C716.992 462.238 716.882 461.303 716.882 460.159C716.882 459.785 716.816 459.444 716.684 459.136C716.552 458.806 716.365 458.531 716.123 458.311C715.881 458.069 715.573 457.893 715.199 457.783C714.825 457.651 714.385 457.585 713.879 457.585H707.213L707.708 456.826V463.987C707.708 464.559 707.554 465.043 707.246 465.439C706.938 465.813 706.509 466 705.959 466ZM707.246 454.186H714.935C715.331 454.186 715.716 454.01 716.09 453.658C716.464 453.284 716.772 452.789 717.014 452.173C717.256 451.535 717.377 450.842 717.377 450.094C717.377 449.126 717.113 448.323 716.585 447.685C716.079 447.025 715.529 446.695 714.935 446.695H707.312L707.708 445.639V454.978L707.246 454.186ZM728.251 442.9H739.306C739.878 442.9 740.351 443.087 740.725 443.461C741.121 443.813 741.319 444.275 741.319 444.847C741.319 445.397 741.121 445.848 740.725 446.2C740.351 446.53 739.878 446.695 739.306 446.695H730.066L730.363 446.134V452.569L730.099 452.305H737.821C738.393 452.305 738.866 452.492 739.24 452.866C739.636 453.218 739.834 453.68 739.834 454.252C739.834 454.802 739.636 455.253 739.24 455.605C738.866 455.935 738.393 456.1 737.821 456.1H730.198L730.363 455.836V462.502L730.099 462.205H739.306C739.878 462.205 740.351 462.403 740.725 462.799C741.121 463.173 741.319 463.613 741.319 464.119C741.319 464.669 741.121 465.12 740.725 465.472C740.351 465.824 739.878 466 739.306 466H728.251C727.679 466 727.195 465.813 726.799 465.439C726.425 465.043 726.238 464.559 726.238 463.987V444.913C726.238 444.341 726.425 443.868 726.799 443.494C727.195 443.098 727.679 442.9 728.251 442.9Z"
            fill="black" />
    </g>
</svg>