<?xml version="1.0" encoding="utf-8"?>
<!-- Generator: Adobe Illustrator 22.1.0, SVG Export Plug-In . SVG Version: 6.00 Build 0)  -->
<svg version="1.1" xmlns="http://www.w3.org/2000/svg" xmlns:xlink="http://www.w3.org/1999/xlink" x="0px" y="0px"
	viewBox="0 0 3710 2832.1" style="enable-background:new 0 0 3710 2832.1;" xml:space="preserve">
	<style type="text/css">
		.st0 {
			fill: #1A2E35;
		}

		.st1 {
			fill: url(#SVGID_1_);
		}

		.st2 {
			opacity: 0.37;
		}

		.st3 {
			fill: #FFFFFF;
		}

		.st4 {
			opacity: 0.37;
			fill: #FFFFFF;
		}

		.st5 {
			opacity: 0.53;
			fill: #FFFFFF;
		}

		.st6 {
			fill: #E2A296;
		}

		.st7 {
			fill: #F4BBAC;
		}

		.st8 {
			opacity: 0.3;
		}

		.st9 {
			fill: #DC143C;
		}

		.st10 {
			fill: url(#SVGID_2_);
		}

		.st11 {
			fill: url(#SVGID_3_);
		}

		.st12 {
			fill: url(#SVGID_4_);
		}

		.st13 {
			fill: url(#SVGID_5_);
		}

		.st14 {
			fill: url(#SVGID_6_);
		}

		.st15 {
			fill: url(#SVGID_7_);
		}

		.st16 {
			fill: #4caf50;
		}

		.st17 {
			fill: #4caf50;
		}

		.st18 {
			fill: url(#SVGID_8_);
		}

		.st19 {
			fill: url(#SVGID_9_);
		}

		.st20 {
			fill: url(#SVGID_10_);
		}

		.st21 {
			fill: url(#SVGID_11_);
		}

		.st22 {
			fill: url(#SVGID_12_);
		}

		.st23 {
			fill: url(#SVGID_13_);
		}

		.st24 {
			fill: url(#SVGID_14_);
		}

		.st25 {
			fill: url(#SVGID_15_);
		}

		.st26 {
			fill: url(#SVGID_16_);
		}
	</style>
	<g id="Background">
	</g>
	<g id="Illustration">
		<g>
			<g>
				<g>
					<path class="st0" d="M604.5,2413.2c0,25,20.5,45.5,45.6,45.5h2464.1c25.1,0,45.6-20.5,45.6-45.5l20.5-1416
					c0-25-29.5-73.9-83.6-70.2L688.5,864.7c-31.4-0.8-61.8,11.3-84.1,33.5c-22.3,22.2-34.5,52.5-33.7,84L604.5,2413.2z" />

					<linearGradient id="SVGID_1_" gradientUnits="userSpaceOnUse" x1="1200.2109" y1="489.1819"
						x2="-2009.8511" y2="4155.6187" gradientTransform="matrix(-1 0 0 1 2009.6311 0)">
						<stop offset="0" style="stop-color:#e34363" />
						<stop offset="1" style="stop-color:#DC143C" />
					</linearGradient>
					<path class="st1"
						d="M649.5,2369.6c0,23.7,19.4,43.1,43.1,43.1h2362.1c23.7,0,43.1-19.4,43.1-43.1l19.3-1285.5
					c-2.3-77.4-70.1-105.2-111.2-103.5L698,918.7c-22.1-0.6-43.5,7.9-59.1,23.5c-15.6,15.6-24.3,37-23.7,59.1L649.5,2369.6z" />
					<g class="st2">
						<path class="st3" d="M3072.3,1756C3072.3,1756,3072.3,1756,3072.3,1756c-1.9,0-3.4-1.6-3.4-3.4l1.5-104.3
						c0-1.9,1.7-3.3,3.4-3.3c1.9,0,3.4,1.6,3.3,3.4l-1.5,104.3C3075.7,1754.5,3074.1,1756,3072.3,1756z" />
						<path class="st3" d="M3076,1500.5L3076,1500.5c-1.9,0-3.4-1.6-3.4-3.4l5.9-399.3c-0.1-24.6-7.6-44.2-22.3-58.3
						c-27.2-26-70.1-24.7-72-24.6L2246.8,995c-1.9,0-3.4-1.6-3.3-3.5c0-1.8,1.6-3.3,3.4-3.3c0,0,0.1,0,0.1,0l737.3,19.8
						c1.8-0.1,47.5-1.5,76.7,26.5c16.1,15.4,24.3,36.7,24.4,63.2l-5.9,399.3C3079.4,1499,3077.9,1500.5,3076,1500.5z" />
					</g>
					<path class="st4" d="M2993.8,2298.3c-2.5-106.2-1.6-1047.1,4.5-1128.3c6.1-81.3-120.5-96.5-314.7-105.6
					c-194.3-9.1-1833.6-45.3-1875.8-48.8c-94.9-7.7-131.5,32.3-105,442c14.9,230.9,19,612.3,24.4,787.5
					c1.6,52.2,44.3,93.6,96.5,93.7c394.5,1.1,1906.4,5.4,2007.1,8.4C2946.5,2350.6,2994.7,2340.4,2993.8,2298.3z" />
				</g>
				<path class="st0" d="M448.6,2531h2808.6c4.1,0,7.5-3.4,7.5-7.5v-109.4c0-4.1-3.4-7.5-7.5-7.5H448.6c-4.1,0-7.5,3.4-7.5,7.5v109.4
				C441.1,2527.7,444.5,2531,448.6,2531z" />
				<path class="st4" d="M2709.2,1298.2H804c-5,0-9-4-9-9v-142.5c0-5,4-9,9-9h1905.1c5,0,9,4,9,9v142.5
				C2718.2,1294.2,2714.1,1298.2,2709.2,1298.2z" />
				<path class="st4" d="M2870.4,2271H806.5c-6.4,0-11.5-5.1-11.5-11.5V2122c0-6.4,5.1-11.5,11.5-11.5h2063.9
				c6.4,0,11.5,5.1,11.5,11.5v137.5C2881.9,2265.8,2876.7,2271,2870.4,2271z" />
				<rect x="1755" y="1879.3" class="st4" width="1126.9" height="195.8" />
				<rect x="795" y="1365.6" class="st3" width="889.3" height="41.7" />
				<rect x="795" y="1436.2" class="st3" width="889.3" height="41.7" />
				<rect x="795" y="1506.9" class="st3" width="889.3" height="41.7" />
				<rect x="795" y="1577.5" class="st5" width="889.3" height="497.6" />
			</g>
			<g>
				<path class="st6" d="M2856.8,494.3c-7.1-0.2-12.8-5.4-12.9-12c-1.3-67.2-24-400.8-341.7-470.5c-353.7-77.6-515.6,255-515.6,255
				S1548.9,111.5,1465,527.3c-274.4,60.9-345.7,392.3-167.2,554.2c28.4,25.7,66.4,40.3,106.1,40.6l1718.6,14.3
				c50.4,0.4,95.2-30.1,109.5-74.8C3285.7,894.1,3356,505.1,2856.8,494.3z" />
				<path class="st7" d="M2817.6,501.4c-7.1-0.2-12.8-5.4-12.9-12c-1.4-64.4-23.9-373.8-323.1-438.6
				C2147.1-21.7,1994,288.9,1994,288.9s-413.8-145-493.2,243.3c-257,56.3-325.6,360.4-162.9,513.2c28.5,26.8,67.4,42,108,42.3
				l1617.9,13.3c50.6,0.4,95.4-30.3,109.6-75.1C3223.8,866.8,3283.6,511.7,2817.6,501.4z" />
			</g>
			<g>
				<g>
					<g class="st8">
						<path class="st3" d="M2525.7,329.8c-3.4-3.7-3.6-9.5-0.1-13.4c7.5-8.5,15.5-16.8,23.7-24.7c4-3.8,10.4-3.7,14.2,0.3
						c0,0,0.1,0.1,0.1,0.1c3.7,4,3.5,10.3-0.5,14c-7.8,7.5-15.4,15.4-22.5,23.4c-3.7,4.2-10,4.6-14.2,0.9
						C2526.2,330.4,2525.9,330.1,2525.7,329.8z M2590.4,271.2c-0.3-0.3-0.5-0.6-0.8-0.9c-3.2-4.5-2.2-10.8,2.3-14
						c9.2-6.7,18.8-13,28.5-18.8c4.7-2.9,10.9-1.3,13.8,3.4c2.9,4.7,1.3,10.9-3.4,13.8c-9.2,5.5-18.3,11.6-27.1,17.9
						C2599.5,275.5,2593.8,274.9,2590.4,271.2z M2666.5,228.2c-0.8-0.8-1.4-1.8-1.8-2.9c-2.2-5.1,0.2-11,5.3-13.1
						c10.4-4.4,21.2-8.5,32-12c5.3-1.7,10.9,1.2,12.6,6.4c1.7,5.3-1.2,10.9-6.4,12.6c-10.3,3.3-20.5,7.2-30.4,11.4
						C2673.8,232.4,2669.3,231.3,2666.5,228.2z M2750.3,203.4c-1.2-1.4-2.1-3.1-2.5-5c-1-5.5,2.7-10.7,8.1-11.6
						c11.2-2,22.6-3.5,33.9-4.5c5.5-0.5,10.4,3.6,10.9,9.1c0.5,5.5-3.6,10.4-9.1,10.9c-10.7,1-21.6,2.4-32.2,4.3
						C2755.9,207.1,2752.5,205.8,2750.3,203.4z M2837.5,197.8c-1.8-1.9-2.8-4.5-2.6-7.3c0.3-5.5,5-9.8,10.5-9.5
						c11.3,0.5,22.8,1.6,34,3.1c5.5,0.7,9.4,5.8,8.6,11.3c-0.7,5.5-5.8,9.3-11.3,8.6c-10.7-1.4-21.6-2.4-32.4-2.9
						C2841.6,200.9,2839.2,199.7,2837.5,197.8z M2923.7,211.7c-2.3-2.5-3.3-6-2.3-9.5c1.5-5.3,7-8.5,12.3-7
						c10.9,3,21.9,6.6,32.5,10.5c5.2,1.9,7.8,7.7,5.9,12.9c-1.9,5.2-7.7,7.8-12.9,5.9c-10.1-3.8-20.5-7.1-30.9-10
						C2926.5,214,2924.9,213,2923.7,211.7z M3190,466c-0.9-1-1.7-2.3-2.1-3.7c-3.4-10.2-7.2-20.5-11.4-30.4
						c-2.2-5.1,0.2-11,5.3-13.2c5.1-2.2,11,0.2,13.2,5.3c4.5,10.5,8.5,21.2,12.1,32c1.7,5.3-1.1,10.9-6.4,12.7
						C3196.7,470.1,3192.6,468.9,3190,466z M3004.7,244.3c-2.8-3.1-3.5-7.7-1.4-11.6c2.6-4.9,8.7-6.7,13.6-4.1
						c10,5.4,19.9,11.3,29.4,17.5c4.6,3.1,5.9,9.3,2.9,13.9c-3,4.6-9.3,5.9-13.9,2.9c-9-5.9-18.4-11.5-27.9-16.6
						C3006.3,245.8,3005.4,245.1,3004.7,244.3z M3153.6,386.6c-0.4-0.5-0.9-1-1.2-1.6c-5.6-9.2-11.6-18.3-18-27.1
						c-3.3-4.5-2.3-10.8,2.2-14c4.5-3.2,10.8-2.3,14,2.2c6.7,9.2,13,18.8,18.9,28.5c2.9,4.7,1.3,10.9-3.4,13.8
						C3162,390.9,3156.8,390.1,3153.6,386.6z M3076.4,294.2c-3.4-3.7-3.6-9.5-0.1-13.4c3.7-4.2,10-4.6,14.2-0.9
						c8.5,7.5,16.8,15.4,24.7,23.6c0.1,0,0.1,0.1,0.1,0.2c3.7,4,3.5,10.2-0.4,14c-4,3.8-10.3,3.7-14.2-0.3
						c-7.5-7.8-15.4-15.3-23.5-22.5C3076.9,294.7,3076.6,294.5,3076.4,294.2z" />
						<path class="st3"
							d="M3205.8,534.7c-1.3-1.5-2.3-3.3-2.5-5.4c-0.7-5.1-1.5-10.3-2.4-15.4c-1-5.5,2.7-10.7,8.1-11.6
						c5.5-1,10.7,2.7,11.6,8.1c1,5.4,1.8,10.8,2.6,16.2c0.8,5.5-3.1,10.5-8.6,11.3C3211.2,538.3,3208,537,3205.8,534.7z" />
					</g>
					<g class="st8">
						<path class="st3"
							d="M3125.6,829.7c-3.3-3.6-3.6-9.1-0.5-13c3.2-4.1,6.4-8.2,9.4-12.5c3.3-4.5,9.5-5.5,14-2.2
						c4.5,3.3,5.5,9.5,2.2,14c-3.2,4.4-6.6,8.8-9.9,13.1c-3.4,4.3-9.7,5.1-14.1,1.7C3126.4,830.5,3126,830.1,3125.6,829.7z" />
						<path class="st3" d="M2531.7,852.5c-3.1-3.4-6.2-6.9-9.2-10.4c-3.6-4.2-3.1-10.5,1.1-14.1c4.2-3.6,10.6-3.1,14.1,1.1
						c7,8.1,14.3,16,21.8,23.4c3.9,3.9,4,10.2,0.1,14.2c-3.9,3.9-10.2,4-14.2,0.1C2540.8,862.2,2536.1,857.4,2531.7,852.5z
						 M2490.8,799.7c-0.4-0.4-0.7-0.9-1-1.4c-6.1-9.4-11.8-19.2-17.1-29c-2.6-4.9-0.8-11,4.1-13.6c4.9-2.6,11-0.8,13.6,4.1
						c5,9.4,10.5,18.6,16.2,27.5c3,4.6,1.7,10.9-3,13.9C2499.4,804,2494,803.3,2490.8,799.7z M2585.5,901.1
						c-3.2-3.5-3.6-8.9-0.6-12.8c3.3-4.4,9.6-5.4,14-2c8.5,6.3,17.4,12.4,26.4,18c4.7,2.9,6.1,9.1,3.2,13.8
						c-2.9,4.7-9.1,6.1-13.8,3.2c-9.5-5.9-18.9-12.3-27.8-19C2586.3,902,2585.9,901.5,2585.5,901.1z M2452.3,722.8
						c-0.9-0.9-1.6-2.1-2-3.3c-3.9-10.5-7.3-21.3-10.3-32c-1.5-5.3,1.7-10.9,7-12.3c5.3-1.5,10.9,1.7,12.3,7
						c2.8,10.2,6.1,20.5,9.8,30.4c1.9,5.2-0.7,11-5.9,12.9C2459.2,726.9,2455,725.7,2452.3,722.8z M2659.6,944.6
						c-2.6-2.9-3.5-7.1-1.8-10.9c2.3-5.1,8.2-7.3,13.2-5.1c9.7,4.3,19.7,8.3,29.7,11.8c5.2,1.8,8,7.5,6.2,12.8
						c-1.8,5.2-7.5,8-12.8,6.2c-10.6-3.7-21.1-7.8-31.3-12.4C2661.6,946.3,2660.5,945.5,2659.6,944.6z M2741.4,970.7
						c-2.1-2.3-3.1-5.5-2.5-8.8c1.1-5.4,6.4-8.9,11.8-7.8c10.4,2.1,21,3.8,31.6,5c5.5,0.6,9.4,5.6,8.8,11.1
						c-0.6,5.5-5.6,9.4-11.1,8.8c-11.1-1.3-22.3-3.1-33.2-5.3C2744.7,973.3,2742.8,972.2,2741.4,970.7z M2827.1,978.4
						c-1.6-1.7-2.6-4-2.6-6.6c-0.1-5.5,4.3-10.1,9.8-10.2c10.6-0.2,21.4-0.9,31.9-2c5.5-0.6,10.4,3.4,11,8.9
						c0.6,5.5-3.4,10.4-8.9,11c-11.1,1.2-22.4,1.9-33.6,2.1C2831.7,981.7,2828.9,980.4,2827.1,978.4z M2912.3,967.2
						c-1.1-1.2-1.9-2.7-2.3-4.4c-1.3-5.4,2-10.8,7.3-12.1c10.3-2.5,20.6-5.5,30.7-8.9c5.2-1.8,10.9,1.1,12.7,6.3
						c1.8,5.2-1,10.9-6.3,12.7c-10.6,3.6-21.5,6.7-32.3,9.4C2918.4,971,2914.7,969.8,2912.3,967.2z M2993.1,937.5
						c-0.6-0.7-1.2-1.5-1.6-2.3c-2.5-5-0.5-11,4.5-13.5c9.5-4.7,18.9-9.9,28-15.5c4.7-2.9,10.9-1.4,13.8,3.3
						c2.9,4.7,1.4,10.9-3.3,13.8c-9.5,5.8-19.4,11.3-29.4,16.3C3000.8,941.8,2996,940.8,2993.1,937.5z M3065.3,890.9
						c-0.1-0.2-0.3-0.3-0.4-0.5c-3.5-4.3-2.8-10.6,1.5-14.1c6.1-4.9,12.1-10.1,17.8-15.4c2.1-1.9,4.1-3.8,6.2-5.8
						c4-3.8,10.3-3.7,14.2,0.3c4,4,3.7,10.3-0.3,14.2c-2.1,2-4.3,4.1-6.5,6.1c-6,5.6-12.3,11-18.7,16.2
						C3074.8,895.3,3068.8,894.8,3065.3,890.9z" />
						<path class="st3"
							d="M2431.7,639.1c-1.3-1.5-2.3-3.3-2.6-5.5c-0.7-5.4-1.3-10.9-1.8-16.3c-0.5-5.5,3.6-10.4,9.1-10.9
						c5.5-0.5,10.4,3.6,10.9,9.1c0.5,5.2,1,10.4,1.7,15.5c0.7,5.5-3.1,10.5-8.6,11.3C2437,642.7,2433.8,641.4,2431.7,639.1z" />
					</g>
					<g>
						<path class="st9" d="M2526.5,570.3c-0.3,2,0.7,3.9,2.5,4.8l50.7,26.1c2.3,26.5,8.9,52.9,19.9,78l-32,47.2
						c-1.1,1.7-1.1,3.8,0.1,5.4l41,54.8c1.2,1.6,3.3,2.3,5.2,1.7l54.3-17.4c21,17.6,44.4,31.4,69.3,41.1l10.7,56
						c0.4,2,2,3.5,3.9,3.8l67.7,9.7c2,0.3,3.9-0.7,4.8-2.5l26.1-50.7c26.5-2.3,52.9-8.9,78-19.9l47.2,32c1.7,1.1,3.8,1.1,5.4-0.1
						l54.8-41c1.6-1.2,2.3-3.3,1.7-5.2l-17.4-54.3c17.6-21,31.4-44.4,41.1-69.3l56-10.7c2-0.4,3.5-2,3.8-3.9l9.7-67.7
						c0.3-2-0.7-3.9-2.5-4.8l-50.7-26.1c-2.3-26.5-8.9-52.9-19.9-78l32-47.2c1.1-1.7,1.1-3.8-0.1-5.4l-41-54.8
						c-1.2-1.6-3.3-2.3-5.2-1.7l-54.3,17.4c-21-17.6-44.4-31.4-69.3-41.1l-10.7-56c-0.4-2-2-3.5-3.9-3.8l-67.7-9.7
						c-2-0.3-3.9,0.7-4.8,2.5l-26.1,50.7c-26.5,2.3-52.9,8.9-78,19.9l-47.2-32c-1.7-1.1-3.8-1.1-5.4,0.1l-54.8,41
						c-1.6,1.2-2.3,3.3-1.7,5.2l17.4,54.3c-17.6,21-31.4,44.4-41.1,69.3l-56,10.7c-2,0.4-3.5,2-3.8,3.9L2526.5,570.3z" />
						<path class="st3" d="M2778.1,625.8c-22.7-24.7-24.5-63-2.8-89.8c23.9-29.5,67.3-34,96.7-10.1c14.3,11.6,23.2,28,25.1,46.3
						c1.9,18.3-3.4,36.2-15,50.5c-23.9,29.5-67.3,34-96.7,10.1C2782.8,630.5,2780.3,628.2,2778.1,625.8z M2867.6,543.6
						c-1.8-1.9-3.7-3.7-5.7-5.4c-22.6-18.3-55.9-14.8-74.2,7.8c-18.3,22.6-14.8,55.9,7.8,74.2c22.6,18.3,55.9,14.8,74.2-7.8
						c8.9-10.9,12.9-24.7,11.5-38.7C2880,562.3,2875.2,551.9,2867.6,543.6z" />
						<path class="st3" d="M2705.9,694c-3.9-4.2-7.6-8.7-11.1-13.4l0,0c-1.1-1.5-2.2-3-3.2-4.5c-5.2-7.4-9.8-15.3-13.7-23.4
						c-0.1-0.1-0.1-0.2-0.2-0.3c-0.2-0.3-0.3-0.6-0.4-0.9c-0.3-0.6-0.6-1.2-0.9-1.8c-0.7-1.6-0.3-3.5,0.9-4.6c0.3-0.3,0.7-0.5,1-0.7
						c2-0.9,4.4,0,5.3,2c4.8,10.4,10.7,20.3,17.5,29.5c34.2,45.7,88.2,68,141.3,64.1c29.5-2.2,58.8-12.6,84.2-31.6
						c4.5-3.3,8.7-6.9,12.8-10.6c27.2-25,44.8-58.4,50.2-95.4c6.1-42.6-4.7-85-30.5-119.5c-53.3-71.1-154.4-85.7-225.5-32.4
						c-4.4,3.3-8.6,6.8-12.6,10.5c-17.4,16-31,35.5-40,57.4c-0.2,0.6-0.6,1-1,1.4c-1.1,1-2.7,1.4-4.2,0.8c-2-0.8-3-3.2-2.2-5.2
						c9.4-22.9,23.7-43.5,41.9-60.3c4.2-3.9,8.6-7.5,13.2-11c74.7-55.9,180.9-40.6,236.7,34.1c27.1,36.2,38.4,80.7,32,125.4
						c-5.6,38.9-24.1,73.9-52.7,100.2c-4.2,3.9-8.7,7.6-13.4,11.1c-36.2,27.1-80.7,38.4-125.4,32
						C2767.2,741.1,2732.2,722.6,2705.9,694z" />
					</g>
				</g>
				<g>
					<g class="st8">
						<path class="st3"
							d="M2099.5,256.8c-1.8-2-2.2-5-0.7-7.4c2.7-4.5,5.6-9,8.6-13.3c1.9-2.8,5.8-3.5,8.6-1.6
						c2.8,1.9,3.5,5.8,1.6,8.6c-2.8,4.1-5.6,8.4-8.2,12.7c-1.8,2.9-5.6,3.9-8.5,2.1C2100.4,257.6,2099.9,257.2,2099.5,256.8z" />
						<path class="st3" d="M2127.7,218.4c-2.1-2.3-2.2-5.9-0.1-8.3c6-6.8,12.4-13.3,19.1-19.4c1.4-1.3,2.8-2.6,4.3-3.8
						c2.6-2.3,6.5-1.8,8.7,0.5c2.3,2.6,2,6.5-0.5,8.7c-1.4,1.2-2.7,2.4-4.1,3.7c-6.4,5.8-12.5,12.1-18.2,18.5
						c-2.3,2.6-6.2,2.8-8.7,0.5C2128,218.7,2127.9,218.6,2127.7,218.4z M2176,175.9c-0.2-0.2-0.4-0.4-0.6-0.7
						c-1.9-2.8-1.2-6.7,1.6-8.6c9.1-6.2,18.6-11.9,28.3-16.9c3-1.6,6.8-0.4,8.3,2.7c1.6,3,0.4,6.8-2.7,8.3
						c-9.3,4.8-18.3,10.2-27,16.1C2181.5,178.6,2178,178.1,2176,175.9z M2233.1,146.3c-0.5-0.6-1-1.3-1.3-2c-1.2-3.2,0.5-6.8,3.7-8
						c10.3-3.8,20.9-7,31.6-9.5c3.3-0.8,6.7,1.3,7.4,4.6c0.8,3.3-1.3,6.7-4.6,7.4c-10.2,2.4-20.3,5.4-30.1,9
						C2237.4,148.9,2234.8,148.1,2233.1,146.3z M2295.7,131.7c-0.9-0.9-1.4-2.2-1.6-3.5c-0.4-3.4,2.1-6.5,5.5-6.8
						c10.9-1.2,22-1.6,32.9-1.4c3.4,0.1,6.1,2.9,6.1,6.3c-0.1,3.4-2.9,6.1-6.3,6.1c-10.4-0.2-21,0.3-31.4,1.4
						C2298.9,133.9,2297,133.1,2295.7,131.7z M2360.1,132.9c-1.2-1.3-1.8-3.2-1.6-5.1c0.5-3.4,3.6-5.7,7-5.3
						c10.9,1.5,21.7,3.8,32.3,6.6c3.3,0.9,5.3,4.3,4.4,7.6c-0.9,3.3-4.3,5.3-7.6,4.4c-10.1-2.7-20.5-4.8-30.8-6.3
						C2362.3,134.6,2361,133.9,2360.1,132.9z M2422.1,149.6c-1.6-1.7-2.1-4.2-1.2-6.5c1.3-3.2,4.9-4.7,8.1-3.4
						c10.2,4.1,20.2,8.9,29.7,14.3c3,1.7,4,5.4,2.4,8.4c-1.7,3-5.4,4.1-8.4,2.4c-9.1-5.1-18.6-9.7-28.3-13.6
						C2423.5,150.8,2422.7,150.2,2422.1,149.6z M2478.2,181c-2-2.1-2.2-5.4-0.4-7.9c2-2.8,5.9-3.3,8.7-1.3
						c8.8,6.5,17.3,13.6,25.3,21.1c2.5,2.4,2.6,6.3,0.2,8.8c-2.3,2.5-6.3,2.6-8.8,0.2c-7.6-7.2-15.7-14-24.1-20.2
						C2478.8,181.5,2478.5,181.3,2478.2,181z M2543.9,251.2c-0.2-0.3-0.5-0.6-0.7-0.9c-4.9-7.6-10.2-15.1-15.9-22.2
						c-0.9-1.1-1.7-2.1-2.6-3.2c-2.2-2.6-1.8-6.5,0.8-8.7c2.6-2.2,6.6-1.9,8.7,0.8c0.9,1.1,1.8,2.2,2.7,3.4
						c6,7.5,11.6,15.3,16.7,23.3c1.8,2.9,1,6.7-1.9,8.6C2549.2,253.9,2545.9,253.4,2543.9,251.2z" />
					</g>
					<g class="st8">
						<path class="st3" d="M2133.6,571.2c-2.3-2.5-2.2-6.4,0.3-8.7c2.5-2.3,6.4-2.2,8.8,0.3c7.1,7.5,14.7,14.6,22.5,21.2
						c2.6,2.2,3,6.1,0.8,8.7c-2.2,2.6-6.1,3-8.7,0.8C2149,586.5,2141,579.1,2133.6,571.2C2133.6,571.2,2133.6,571.2,2133.6,571.2z
						 M2113.2,546.9c-0.2-0.2-0.3-0.3-0.4-0.5c-6.4-8.7-12.4-17.8-17.7-27.2c-1.7-3-0.6-6.8,2.3-8.4c3-1.7,6.8-0.6,8.4,2.3
						c5.1,8.9,10.8,17.7,16.9,25.9c2,2.7,1.5,6.6-1.3,8.7C2118.9,549.5,2115.4,549.2,2113.2,546.9z M2182.2,611.6
						c-1.9-2-2.2-5.1-0.7-7.5c1.8-2.9,5.7-3.7,8.6-1.9c8.7,5.6,17.8,10.6,27,15.1c3.1,1.5,4.4,5.2,2.9,8.3c-1.5,3.1-5.2,4.4-8.3,2.9
						c-9.7-4.7-19.2-10-28.3-15.8C2183,612.3,2182.6,612,2182.2,611.6z M2082,491.8c-0.5-0.5-0.9-1.1-1.2-1.8
						c-4.1-10-7.7-20.3-10.6-30.7c-0.9-3.3,1-6.7,4.3-7.6c3.3-0.9,6.7,1,7.6,4.3c2.8,9.9,6.2,19.7,10.1,29.2
						c1.3,3.2-0.2,6.8-3.3,8.1C2086.5,494.4,2083.7,493.7,2082,491.8z M2239.2,639c-1.5-1.6-2.1-4-1.3-6.2c1.1-3.2,4.6-5,7.9-3.9
						c9.7,3.3,19.8,6.1,29.8,8.2c3.4,0.7,5.5,4,4.8,7.3c-0.7,3.3-4,5.5-7.3,4.8c-10.6-2.2-21.1-5.1-31.3-8.6
						C2240.7,640.3,2239.9,639.8,2239.2,639z M2301.1,652c-1.1-1.2-1.8-2.9-1.6-4.7c0.3-3.4,3.3-5.9,6.7-5.6
						c10.3,0.9,20.7,1.1,30.9,0.8c3.4-0.1,6.3,2.6,6.4,6c0.1,3.4-2.6,6.3-6,6.4c-10.8,0.4-21.7,0.1-32.4-0.8
						C2303.5,653.8,2302.1,653.1,2301.1,652z M2364.3,649.8c-0.8-0.9-1.4-2-1.6-3.2c-0.5-3.4,1.8-6.6,5.2-7.1
						c10.2-1.6,20.3-3.8,30.2-6.7c3.3-0.9,6.7,1,7.7,4.3c0.9,3.3-1,6.7-4.3,7.7c-10.4,3-21,5.3-31.7,7
						C2367.7,652,2365.7,651.2,2364.3,649.8z" />
						<path class="st3" d="M2065,430.6c-0.8-0.9-1.4-2-1.6-3.3c-0.8-5.2-1.4-10.5-1.9-15.7c-0.3-3.4,2.2-6.4,5.6-6.7
						c3.4-0.3,6.4,2.2,6.7,5.6c0.4,5,1,10,1.8,15c0.5,3.4-1.8,6.5-5.2,7C2068.4,432.8,2066.4,432,2065,430.6z" />
					</g>
					<g>
						<path class="st9" d="M2127.4,380.2c-0.2,1.3,0.5,2.6,1.7,3.2l33.9,17.5c1.6,17.8,5.9,35.4,13.3,52.2l-21.4,31.6
						c-0.8,1.1-0.7,2.6,0.1,3.6l27.4,36.7c0.8,1.1,2.2,1.5,3.5,1.1l36.3-11.7c14.1,11.8,29.7,21,46.3,27.5l7.2,37.5
						c0.3,1.3,1.3,2.3,2.6,2.5l45.3,6.5c1.3,0.2,2.6-0.5,3.2-1.7l17.5-33.9c17.8-1.6,35.4-5.9,52.2-13.3l31.6,21.4
						c1.1,0.8,2.6,0.7,3.6-0.1l36.7-27.4c1.1-0.8,1.5-2.2,1.1-3.5l-11.7-36.3c11.8-14.1,21-29.7,27.5-46.3l37.5-7.2
						c1.3-0.3,2.3-1.3,2.5-2.6l6.5-45.3c0.2-1.3-0.5-2.6-1.7-3.2l-33.9-17.5c-1.6-17.8-5.9-35.4-13.3-52.2l21.4-31.6
						c0.8-1.1,0.7-2.6-0.1-3.6l-27.4-36.7c-0.8-1.1-2.2-1.5-3.5-1.1l-36.3,11.7c-14.1-11.8-29.7-21-46.3-27.5l-7.2-37.5
						c-0.3-1.3-1.3-2.3-2.6-2.5l-45.3-6.5c-1.3-0.2-2.6,0.5-3.2,1.7l-17.5,33.9c-17.8,1.6-35.4,5.9-52.2,13.3l-31.6-21.4
						c-1.1-0.8-2.6-0.7-3.6,0.1l-36.7,27.4c-1.1,0.8-1.5,2.2-1.1,3.5l11.7,36.3c-11.8,14.1-21,29.7-27.5,46.3l-37.5,7.2
						c-1.3,0.3-2.3,1.3-2.5,2.6L2127.4,380.2z" />
						<path class="st3" d="M2295.1,417.8c-6.8-7.4-11-16.6-12-26.8c-1.3-12.4,2.3-24.7,10.2-34.4c16.3-20.1,45.8-23.2,65.9-6.9
						c20.1,16.3,23.2,45.8,6.9,65.9c-7.9,9.7-19.1,15.8-31.5,17.1c-12.4,1.3-24.7-2.3-34.4-10.2
						C2298.3,421.1,2296.6,419.5,2295.1,417.8z M2355,362.8c-1.1-1.2-2.4-2.4-3.7-3.5c-14.8-12-36.5-9.7-48.5,5.1
						c-5.8,7.2-8.5,16.1-7.5,25.3c1,9.2,5.4,17.4,12.6,23.2l0,0c7.2,5.8,16.1,8.5,25.3,7.5c9.2-1,17.4-5.4,23.2-12.6
						C2367.3,394.4,2366.4,375.2,2355,362.8z" />
						<path class="st3" d="M2244.8,465.3c-2.7-2.9-5.2-5.9-7.6-9.1c-4.8-6.4-8.9-13.2-12.3-20.4c-0.1-0.3-0.3-0.6-0.4-1
						c-1.1-2.5-0.5-5.4,1.4-7.1c0.5-0.4,1-0.8,1.6-1.1c3.1-1.4,6.8,0,8.2,3c3.1,6.7,6.9,13.1,11.4,19.1l0,0c0.2,0.3,0.5,0.7,0.7,1
						c10.7,14,24.4,24.7,40,31.7c8.5,3.8,17.5,6.5,26.9,7.9c0.1,0,0.2,0,0.2,0c0.2,0,0.5,0.1,0.7,0.1c27.6,4,55-3,77.3-19.7
						c2.9-2.2,5.6-4.4,8.3-6.9c17.6-16.2,29-37.8,32.5-61.8c4-27.6-3-55-19.7-77.3c-16.7-22.3-41.1-36.8-68.6-40.7
						c-27.6-4-55,3-77.3,19.7c-2.8,2.1-5.6,4.4-8.1,6.8c-11.2,10.3-20.1,23-25.9,37.2c-0.4,0.9-0.9,1.6-1.5,2.2
						c-1.7,1.6-4.2,2.1-6.5,1.2c-3.2-1.3-4.7-4.9-3.4-8.1c6.5-15.8,16.4-30,28.9-41.6c2.9-2.7,5.9-5.2,9.1-7.6
						c25-18.7,55.7-26.5,86.5-22.1c30.8,4.4,58.1,20.6,76.8,45.6c18.7,25,26.5,55.7,22.1,86.5c-3.9,26.9-16.6,51-36.3,69.1
						c-2.9,2.7-6,5.3-9.2,7.7C2352.2,515.8,2284.8,508.8,2244.8,465.3z" />
					</g>
				</g>
			</g>
			<g>
				<g>
					<path class="st9" d="M893.5,1153.2c4.1-63.5,42.4-119.7,99.9-147l744.3-353.5c47.7-22.6,103-22.6,150.7,0l744.3,353.5
					c57.4,27.3,95.8,83.5,99.9,147c69.8,1079.2-622.2,1472.4-849,1571.8c-45,19.7-96.1,19.7-141.1,0
					C1515.7,2625.6,823.7,2232.4,893.5,1153.2z" />
					<path class="st3" d="M2038.2,799.6c-1.2,0-2.5-0.3-3.6-0.8l-175.9-83.5c-4.2-2-6-7.1-4-11.3c2-4.2,7.1-6,11.3-4l175.9,83.5
					c4.2,2,6,7.1,4,11.3C2044.4,797.8,2041.4,799.6,2038.2,799.6z" />
					<path class="st3" d="M2675.7,1382.1c-0.1,0-0.2,0-0.3,0c-4.7-0.2-8.4-4.1-8.2-8.8c2.3-69.6,1.1-142.1-3.6-215.6
					c-2.5-38.3-25.7-72.4-60.5-88.9l-500.7-237.8c-4.2-2-6-7.1-4-11.3c2-4.2,7.1-6,11.3-4l500.7,237.8
					c40.4,19.2,67.3,58.7,70.2,103.2c4.8,74.1,6,147.2,3.7,217.3C2684,1378.4,2680.3,1382.1,2675.7,1382.1z" />
					<path class="st3" d="M1073.5,1195.3c0.8-16.1,10.4-30.5,25-37.4l695.8-330.5c11.9-5.6,25.7-5.6,37.5,0l695.8,330.5
					c14.6,6.9,24.1,21.3,25,37.4c20.6,402.6-72.4,738.5-276.6,998.8c-155.7,198.5-337.7,304.9-444.4,354.5c-11.8,5.5-25.3,5.5-37,0
					c-106.7-49.6-288.8-156-444.4-354.5C1145.9,1933.8,1053,1597.9,1073.5,1195.3z" />
					<g>

						<linearGradient id="SVGID_2_" gradientUnits="userSpaceOnUse" x1="-187.0597" y1="1206.4263"
							x2="-112.281" y2="1994.0983" gradientTransform="matrix(-1 0 0 1 1640.8489 0)">
							<stop offset="0" style="stop-color:#e34363" />
							<stop offset="1" style="stop-color:#DC143C" />
						</linearGradient>
						<path class="st10" d="M2018.8,1627.8h69.3v-276.4c0-108.5-81.3-200.3-189-213.4l-141.8-17.2c-61-7.4-122.4,11.7-168.5,52.5
						c-46,40.8-72.4,99.4-72.4,160.9v241.3h69.3v-241.3c0-41.6,17.9-81.4,49.1-109c31.2-27.6,72.8-40.6,114.1-35.5l141.8,17.2
						c73,8.9,128,71,128,144.5V1627.8z" />
						<linearGradient id="SVGID_3_" gradientUnits="userSpaceOnUse" x1="1846.6616" y1="1428.5725"
							x2="1592.579" y2="3334.2034">
							<stop offset="0" style="stop-color:#e34363" />
							<stop offset="1" style="stop-color:#DC143C" />
						</linearGradient>
						<path class="st11" d="M2108.7,1565.8l-607.9-33.7c-24.7-1.4-45.5,18.3-45.5,43v481.6c0,23.8,19.3,43.1,43.1,43.1h593.3
						c23.2,0,42.3-18.4,43.1-41.7l14.6-447.9C2150.1,1586.8,2132,1567.1,2108.7,1565.8z" />
						<path class="st3" d="M1703.2,1961.8l36.8-105.8c4.4-12.7,1.4-26.9-8-36.5c-18.9-19.1-30.1-45.7-28.8-75
						c2.3-51.6,44.5-93.4,96.1-95.4c57.1-2.2,104.1,43.5,104.1,100.1c0,31.4-14.5,59.4-37.1,77.8c-11.7,9.5-16.6,25.2-11.6,39.5
						l33.2,95.4c8.1,23.2-9.2,47.4-33.7,47.4h-117.3C1712.4,2009.3,1695.1,1985,1703.2,1961.8z" />
					</g>
				</g>
				<g>

					<linearGradient id="SVGID_4_" gradientUnits="userSpaceOnUse" x1="860.0319" y1="-969.3394"
						x2="762.0585" y2="-640.6547" gradientTransform="matrix(1 0 0 1 765.5016 0)">
						<stop offset="0" style="stop-color:#53D8FF" />
						<stop offset="1" style="stop-color:#c8e6c9" />
					</linearGradient>
					<path class="st12" d="M468.9,2736.7c0,0-10.9,17.2-13.7,65.4c-0.3,4.5,3.3,8.3,7.8,8.3h85.4c3.4,0,5.9-3.4,4.8-6.6
					c-5-14.8-20.1-50.9-53.9-71.6L468.9,2736.7z" />

					<linearGradient id="SVGID_5_" gradientUnits="userSpaceOnUse" x1="-300.2685" y1="2725.6199"
						x2="-260.4142" y2="2725.6199" gradientTransform="matrix(1 0 0 1 765.5016 0)">
						<stop offset="0" style="stop-color:#A22B25" />
						<stop offset="1" style="stop-color:#C0423C" />
					</linearGradient>
					<path class="st13" d="M465.2,2704l4.8,40.5c0.4,3.5,3.2,6.3,6.7,6.7c4.7,0.5,11.5,0.9,18.1-0.2c6-1,10.3-6.3,10.3-12.4v-39.1
					L465.2,2704z" />

					<linearGradient id="SVGID_6_" gradientUnits="userSpaceOnUse" x1="1076.6152" y1="-904.8004"
						x2="978.6414" y2="-576.1139" gradientTransform="matrix(1 0 0 1 765.5016 0)">
						<stop offset="0" style="stop-color:#53D8FF" />
						<stop offset="1" style="stop-color:#c8e6c9" />
					</linearGradient>
					<path class="st14" d="M680.2,2732.2c0,0-16.3,25.4-16,60.3c0.1,8.2,7,14.8,15.2,14.8h132.6c6.2,0,8.7-8,3.6-11.6
					c-25.1-17.6-74.4-50.5-110.1-63.5H680.2z" />

					<linearGradient id="SVGID_7_" gradientUnits="userSpaceOnUse" x1="-98.9203" y1="2707.9236"
						x2="-59.2867" y2="2707.9236" gradientTransform="matrix(1 0 0 1 765.5016 0)">
						<stop offset="0" style="stop-color:#A22B25" />
						<stop offset="1" style="stop-color:#C0423C" />
					</linearGradient>
					<path class="st15" d="M666.6,2688.5l10.3,50c1.2,5.6,6.6,9.4,12.2,8.1c3.4-0.8,7.4-2.2,11.7-4.9c4.1-2.5,6.1-7.4,5.3-12.1
					l-10.7-60.6L666.6,2688.5z" />
					<path class="st16"
						d="M484.2,1993c0,0-35.8,31.6-42.6,69.6c-6.7,38,19.1,655.6,19.1,655.6s35.8,6,54.3-5.2
					c0,0,21.9-400.8,38.5-493.4c0,0,87.3,415.2,111.5,490.2c0,0,34.5,4.2,45.6-2.4c0,0-22.9-538.2-51.6-633.9L484.2,1993z" />
					<path class="st17" d="M552.5,2207.3c0.4,0,0.8,0,1.2-0.2c2.5-0.7,4.1-3.3,3.4-5.8l-15.2-58.4c-0.3-1.2-1-2.2-2-2.8l-32.9-21.1
					c-2.2-1.4-5.1-0.8-6.5,1.4c-1.4,2.2-0.8,5.1,1.4,6.5l31.3,20.1l14.8,56.6C548.5,2205.9,550.4,2207.3,552.5,2207.3z" />
					<linearGradient id="SVGID_8_" gradientUnits="userSpaceOnUse" x1="1081.1641" y1="1234.1096"
						x2="1022.3099" y2="1322.3906">
						<stop offset="0" style="stop-color:#c8e6c9" />
						<stop offset="1" style="stop-color:#c8e6c9" />
					</linearGradient>
					<path class="st18" d="M779.2,1655.3C639.1,1712.4,618,1758,618,1758l116.4,69.3c0,0,130.8-69.6,188.5-190.6
					c-27.4-10.1-50.4-25-66.6-37.4C837,1621.8,811.9,1642,779.2,1655.3z" />

					<linearGradient id="SVGID_9_" gradientUnits="userSpaceOnUse" x1="-717.241" y1="1759.6569"
						x2="-569.943" y2="1759.6569"
						gradientTransform="matrix(0.8919 -0.4522 0.4522 0.8919 667.0049 -360.1301)">
						<stop offset="0" style="stop-color:#A22B25" />
						<stop offset="1" style="stop-color:#C0423C" />
					</linearGradient>
					<path class="st19" d="M889.7,1351.1c-2.4-4.2-8.8-2.4-8.7,2.4l1.4,45.3c0.3,8.8,3.2,17.2,8.5,24.2l16.8,18.3
					c7.1,9.5,9.8,21.5,7.3,33.1c-5.8,27.7-21.1,80.7-58.8,124.9c16.2,12.4,39.2,27.3,66.6,37.4c21.2-44.4,32.5-95.7,23.9-153
					c6.6-6.4,8.1-16.3,3.6-24.3L889.7,1351.1z" />

					<linearGradient id="SVGID_10_" gradientUnits="userSpaceOnUse" x1="30.7356" y1="1507.819"
						x2="-49.8947" y2="2271.4385" gradientTransform="matrix(1 0 0 1 765.5016 0)">
						<stop offset="0" style="stop-color:#c8e6c9" />
						<stop offset="1" style="stop-color:#c8e6c9" />
					</linearGradient>
					<path class="st20" d="M887.3,1702.5c-53.1-57.2-154.2-83-212.8-93.7c-25.6-4.7-50.9,9.6-60,34.1
					c-26.3,70.8-98,255.1-111.9,286.8c-11.4,26-23.3,51.4-30.9,67.2c-4.5,9.5-0.6,20.8,8.9,25.4c49.3,23.7,137.9,50.6,173.8,61.1
					c7.9,2.3,15.8-3.6,15.8-11.9c0-7,1.9-13.8,5.5-19.8l136.1-226.8c84.8,94,159.1,102.7,216.2,82.1c-9.6-29.7-15.9-59.4-18.9-89.1
					C924.8,1803.3,887.3,1702.5,887.3,1702.5z" />

					<linearGradient id="SVGID_11_" gradientUnits="userSpaceOnUse" x1="499.7866" y1="1579.5156"
						x2="181.5159" y2="1975.4749" gradientTransform="matrix(1 0 0 1 765.5016 0)">
						<stop offset="0" style="stop-color:#A22B25" />
						<stop offset="1" style="stop-color:#C0423C" />
					</linearGradient>
					<path class="st21" d="M1148.5,1802l-15.2-20.3c-49.3,33.8-90.4,41.8-124.1,36.1c3,29.8,9.3,59.5,18.9,89.1
					C1103.2,1879.8,1148.5,1802,1148.5,1802z" />

					<linearGradient id="SVGID_12_" gradientUnits="userSpaceOnUse" x1="560.128" y1="1628.0198"
						x2="241.8589" y2="2023.9771" gradientTransform="matrix(1 0 0 1 765.5016 0)">
						<stop offset="0" style="stop-color:#A22B25" />
						<stop offset="1" style="stop-color:#C0423C" />
					</linearGradient>
					<path class="st22" d="M1137.7,1802.3l85.7,3.3l78.9-44.1c-11.3-7.1-75.4,7.4-75.4,7.4s-67-10.1-85.1-10.2
					c-15.1,0-12.9,21.6-11.7,29c0.2,1.5,0.4,2.4,0.4,2.4L1137.7,1802.3z" />
					<linearGradient id="SVGID_13_" gradientUnits="userSpaceOnUse" x1="1106.0906" y1="1386.8937"
						x2="972.5373" y2="1463.8566">
						<stop offset="0" style="stop-color:#A22B25" />
						<stop offset="1" style="stop-color:#C0423C" />
					</linearGradient>
					<path class="st23" d="M755.1,1503.7l-45.2,110.4c0,0,52,36,93.8,32.5l22.6-99.2L755.1,1503.7z" />
					<g>

						<linearGradient id="SVGID_14_" gradientUnits="userSpaceOnUse" x1="-212.6838" y1="3461.7732"
							x2="-348.9115" y2="3641.9915"
							gradientTransform="matrix(0.817 -0.5767 0.5767 0.817 -1012.5564 -1506.3571)">
							<stop offset="0" style="stop-color:#A22B25" />
							<stop offset="1" style="stop-color:#C0423C" />
						</linearGradient>
						<path class="st24" d="M831.5,1428.5c1,1.5,32.7,115.9,32.7,115.9l-65.7,16.7l-46.1-104C752.3,1457.1,814.1,1403.9,831.5,1428.5
						z" />

						<linearGradient id="SVGID_15_" gradientUnits="userSpaceOnUse" x1="201.7353" y1="1281.1604"
							x2="216.9433" y2="1843.8387" gradientTransform="matrix(-1 0 0 1 1004.9133 0)">
							<stop offset="0" style="stop-color:#09005D" />
							<stop offset="1" style="stop-color:#1A0F91" />
						</linearGradient>
						<path class="st25" d="M777.1,1472.9l20,56.7c0.3,0.7,0.6,1.4,1,2c2.7,3.9,13,16.4,25.3,5.1c11.1-10.3,21.4-19.5,30.9-21.2
						c4.3-0.8,8.4,1.8,9.5,6c2.9,10.4,8.9,34,11.1,55.2c0.4,4.3-2.5,8.2-6.8,9c-12.8,2.4-40.1,6.8-62.8,5.2
						c-3.1-0.2-5.8-2.1-7.1-4.9c-6.3-13.7-25.4-55.2-32.6-65.9c-6.7-10.1-23.1-9.8-30-9.2c-2.3,0.2-4.5-0.5-6.2-2
						c-6-5.3-17.5-18.8-1.4-34.9c3.4-3.4,3.3-8.8-0.2-12.1c-6.9-6.5-14.3-18.1-2.8-32.4c11.7-14.6,27.2-12.2,36.7-8.8
						c3.8,1.4,8-0.2,10.1-3.7c1.2-2,3.3-3.5,6.8-3.2c4.8,0.4,8.9-3.6,8.8-8.5c-0.2-9.3,3.2-21.1,19.4-26.1
						c28.7-8.9,46.6,18.8,48.4,39.5c1.8,20.7-29.9,28.6-48.5,27.2c-14.2-1.1-24.7,13-28.9,19.8
						C776.5,1467.9,776.2,1470.5,777.1,1472.9z" />

						<linearGradient id="SVGID_16_" gradientUnits="userSpaceOnUse" x1="-412.2046" y1="3604.4919"
							x2="-302.9377" y2="3492.387"
							gradientTransform="matrix(0.817 -0.5767 0.5767 0.817 -1012.5564 -1506.3571)">
							<stop offset="0" style="stop-color:#A22B25" />
							<stop offset="1" style="stop-color:#C0423C" />
						</linearGradient>
						<path class="st26" d="M773.1,1540.7c0,0-4.6-35.9-19.6-37.7c-14.9-1.8-29.5,10.5-14.6,30.7
						C757.3,1558.8,773.1,1540.7,773.1,1540.7z" />
					</g>
				</g>
			</g>
		</g>
	</g>
</svg>